<svg width="299" height="301" viewBox="0 0 299 301" fill="none" xmlns="http://www.w3.org/2000/svg">
<g clip-path="url(#clip0_214815_24)">
<path d="M58.681 292.967C58.681 288.534 77.9065 284.933 101.636 284.933C125.365 284.933 144.591 288.534 144.591 292.967C144.591 297.399 125.365 301 101.636 301C77.9065 301 58.681 297.399 58.681 292.967Z" fill="#926B94" fill-opacity="0.3"/>
<path d="M213.09 292.967C213.09 288.534 232.326 284.933 256.045 284.933C279.764 284.933 299 288.534 299 292.967C299 297.399 279.764 301 256.045 301C232.326 301 213.09 297.399 213.09 292.967Z" fill="#916A93" fill-opacity="0.3"/>
<path d="M108.84 77.4259C108.279 77.4259 107.728 77.134 107.425 76.6042C106.982 75.8257 107.263 74.831 108.041 74.3985C108.127 74.3553 116.185 69.7817 119.987 66.2786C120.613 65.7055 121.283 64.9595 121.974 64.1053C121.855 63.9432 121.736 63.7918 121.628 63.6188C118.788 59.4994 118.334 53.4878 120.624 50.2225C122.114 48.1033 124.566 47.314 127.364 48.0601C129.038 48.5034 130.183 49.6495 130.582 51.2713C131.414 54.6447 128.919 59.7913 126.219 63.7594C127.612 64.7433 129.535 65.3163 132.116 64.6459C133.952 64.1702 135.562 63.2728 136.922 62.1267C135.929 60.386 135.291 58.429 135.097 56.5368C134.6 51.7578 136.782 48.1033 140.789 46.9789C142.139 46.6004 143.371 46.8816 144.256 47.7573C145.639 49.1305 145.92 51.7903 145.034 55.0556C144.397 57.4126 143.101 60.1265 141.124 62.4835C142.355 63.8026 143.932 64.7108 145.747 64.8298C153.21 65.3163 156.332 61.2726 157.574 58.6128C155.143 56.6017 153.318 53.8554 152.454 51.5632C151.158 48.1358 152.227 46.6221 152.983 46.0274C155.089 44.3515 158.276 46.4923 159.323 47.1843C161.678 48.7629 162.531 53.0661 161.462 57.3369C162.596 57.9316 163.763 58.2127 164.875 58.1586C167.197 58.0397 169.433 56.3855 171.042 54.3095C168.634 53.2283 166.83 51.5524 166.549 49.736C166.344 48.352 166.765 45.8868 171.993 44.8489C174.229 44.4056 175.395 45.3787 175.881 46.0058C176.972 47.3789 176.983 49.6387 175.935 52.266C176.551 52.3201 177.188 52.3309 177.804 52.266C179.089 52.1255 180.039 51.228 180.633 49.5846C179.694 48.9683 178.905 48.1574 178.344 47.26C176.659 44.6002 177.037 41.6701 179.294 39.9726C180.234 39.259 181.357 39.2049 182.286 39.8212C184.047 40.9781 184.684 44.4272 184.371 47.5843C185.019 47.6276 185.721 47.5087 186.455 47.1194C189.361 45.5841 189.976 42.9027 190.041 41.1295C188.302 41.216 186.66 40.9889 185.494 40.5456C183.344 39.7239 183.01 38.3616 182.999 37.6263C182.956 35.1828 186.272 33.7988 187.362 33.3447C188.767 32.7609 190.905 33.1285 192.298 36.091C192.482 36.4802 192.644 36.9019 192.784 37.3452C193.713 37.0209 194.577 36.5343 195.204 35.8423C196.338 34.6206 196.468 33.1393 196.305 31.9499C195.517 32.1986 194.718 32.35 193.962 32.4041C191.596 32.5771 189.728 31.7986 188.961 30.3173C188.432 29.2902 188.205 27.571 190.149 25.1815C191.045 24.0787 192.331 23.5921 193.681 23.8408C195.269 24.1327 196.889 25.4735 198.023 27.344C198.66 26.7601 199.189 26.0249 199.492 25.1599C200.172 23.2137 199.632 21.3865 198.574 19.9809C197.807 20.7161 196.943 21.3324 196.057 21.8081C192.979 23.4516 189.89 23.4408 188.529 21.7757C187.859 20.954 187.103 19.1159 189.62 16.0993C191.532 13.8071 194.804 13.472 197.969 15.256C198.509 13.9261 198.682 12.2069 198.023 10.0445C196.997 6.71434 195.301 5.3412 192.99 5.95749C192.828 6.00074 192.676 6.0548 192.525 6.10886C192.536 6.1413 192.558 6.17374 192.568 6.20617C193.919 9.28764 193.735 12.1961 192.104 13.6125C191.305 14.3045 189.501 15.1911 186.38 13.2557C185.116 12.4772 184.63 11.0176 185.083 9.37414C185.483 7.93612 186.574 6.37917 188.021 5.11414C186.876 3.91399 185.289 3.10308 183.344 3.31932C180.752 3.61125 179.521 5.57907 178.949 7.08196C181.184 7.49282 182.848 8.63891 183.442 10.1851C183.723 10.9203 183.993 12.3907 182.621 14.0126C180.439 16.6075 178.581 16.2831 177.674 15.8723C175.913 15.0613 175.168 12.8448 175.125 10.5094C174.239 10.823 173.397 11.3528 172.76 12.2069C170.275 15.5371 174.261 21.9271 176 24.1003C176.562 24.8031 176.443 25.8194 175.751 26.3817C175.049 26.9439 174.034 26.8358 173.473 26.133C173.148 25.7329 165.674 16.2831 170.167 10.2607C171.604 8.33617 173.613 7.3847 175.557 7.06033C176.432 3.80587 178.743 0.56222 182.988 0.0864845C186.39 -0.302754 189.015 1.23257 190.775 3.31932C191.802 2.8544 192.882 2.57328 193.951 2.56247C195.863 2.54085 199.341 3.34095 201.112 9.08221C202.127 12.3799 201.728 15.1586 200.583 17.3319C202.602 19.5484 203.769 22.738 202.559 26.2195C201.922 28.0468 200.745 29.4523 199.33 30.4579C200.032 33.3339 199.416 36.0586 197.591 38.0372C196.446 39.2806 194.923 40.0915 193.292 40.5781C193.357 44.0163 191.974 47.8763 187.978 49.9846C186.52 50.7523 185.04 50.9577 183.669 50.7523C182.642 53.5202 180.687 55.2285 178.16 55.488C176.886 55.6178 175.589 55.5529 174.326 55.3259C172.209 58.483 168.893 61.2077 165.059 61.4023C163.395 61.4888 161.808 61.0996 160.36 60.3968C157.736 65.6839 152.346 68.5275 145.563 68.0734C142.917 67.9004 140.627 66.603 138.877 64.7433C137.225 66.1056 135.248 67.1976 132.948 67.7815C129.729 68.6032 126.726 68.0842 124.318 66.3543C123.54 67.3166 122.817 68.1058 122.222 68.6573C118.14 72.4199 110.017 77.0151 109.672 77.2097C109.423 77.3503 109.143 77.4151 108.883 77.4151L108.84 77.4259ZM125.355 51.0226C124.458 51.0226 123.778 51.3794 123.27 52.093C121.985 53.9311 121.996 58.0613 123.972 61.305C126.165 57.91 127.904 54.0068 127.428 52.0606C127.331 51.6497 127.137 51.3686 126.521 51.2064C126.089 51.0983 125.7 51.0334 125.344 51.0334L125.355 51.0226ZM141.934 50.0603C141.934 50.0603 141.804 50.0603 141.653 50.1036C138.175 51.0767 138.154 54.6988 138.316 56.2016C138.435 57.3585 138.759 58.5371 139.255 59.6399C140.724 57.6613 141.696 55.4124 142.107 53.3689C142.528 51.2497 142.15 50.1901 141.966 50.0495C141.966 50.0495 141.966 50.0495 141.945 50.0495L141.934 50.0603ZM155.089 48.6764C155.089 49.4008 155.554 51.228 157.152 53.4337C157.606 54.0608 158.081 54.6339 158.589 55.1529C158.935 52.5363 158.33 50.4171 157.52 49.8873C156.191 49.0007 155.435 48.7412 155.089 48.6764ZM173.062 47.9844C172.954 47.9844 172.803 47.9952 172.608 48.0385C170.416 48.4709 169.789 49.098 169.746 49.2494C169.746 49.3035 169.843 49.6062 170.34 50.0711C170.902 50.6009 171.744 51.0983 172.738 51.4984C172.814 51.3362 172.878 51.174 172.943 51.0118C173.656 49.1845 173.483 48.1682 173.343 48.0168C173.343 48.0168 173.267 47.9844 173.073 47.9844H173.062ZM180.752 43.0649C180.191 43.9947 180.817 45.1408 181.055 45.5192C181.087 45.5733 181.13 45.6382 181.174 45.703C181.141 44.611 180.968 43.6703 180.752 43.0757V43.0649ZM186.498 37.4425C186.995 37.648 187.913 37.8966 189.263 37.8966C189.361 37.8966 189.436 37.8966 189.523 37.8966C189.155 36.9344 188.691 36.3937 188.475 36.3289C187.395 36.8046 186.812 37.1939 186.498 37.4533V37.4425ZM192.946 26.998C192.86 26.998 192.763 27.0412 192.622 27.2142C191.834 28.1873 191.769 28.7171 191.802 28.8036C191.877 28.9334 192.558 29.2793 193.908 29.128C194.307 29.0847 194.729 28.9982 195.139 28.8793C194.426 27.7656 193.584 27.1061 193.054 27.0088C193.022 27.0088 192.979 26.998 192.946 26.998ZM191.099 19.7214C191.748 19.8944 193.681 19.6457 195.549 18.2509C195.701 18.1428 195.852 18.0239 196.003 17.8833C194.675 17.2238 193.022 16.9967 192.061 18.1536C191.37 18.9862 191.164 19.4943 191.099 19.7214ZM178.333 10.2391C178.333 11.6879 178.722 12.6827 178.992 12.8773C178.992 12.8448 179.402 12.7151 180.115 11.8717C180.169 11.8069 180.45 11.4717 180.385 11.2987C180.266 10.9852 179.543 10.4554 178.333 10.2283V10.2391ZM188.108 10.5094C189.328 11.2446 189.879 11.1798 189.933 11.1365C190.171 10.9311 190.408 9.6985 189.728 7.90368C188.713 8.90921 188.075 10.0121 188.108 10.5094Z" fill="#392727"/>
<path d="M233.234 77.4259C232.964 77.4259 232.694 77.3611 232.445 77.2205C232.1 77.0259 223.977 72.4199 219.895 68.6681C219.301 68.1167 218.566 67.3274 217.799 66.3651C215.38 68.095 212.377 68.614 209.169 67.7923C206.869 67.1976 204.892 66.1164 203.24 64.7541C201.49 66.6138 199.2 67.9004 196.554 68.0842C189.771 68.5275 184.381 65.6947 181.757 60.4076C180.299 61.1104 178.711 61.4996 177.058 61.4131C173.224 61.2185 169.908 58.4938 167.791 55.3367C166.538 55.5637 165.231 55.6394 163.957 55.4989C161.43 55.2286 159.475 53.5202 158.449 50.7631C157.077 50.9686 155.597 50.7631 154.139 49.9955C150.153 47.8871 148.771 44.0271 148.825 40.5889C147.205 40.1023 145.671 39.2914 144.526 38.048C142.701 36.0694 142.085 33.3447 142.787 30.4687C141.372 29.4523 140.195 28.0468 139.558 26.2195C138.348 22.738 139.515 19.5484 141.534 17.3319C140.389 15.1478 139.99 12.3799 141.005 9.08222C142.776 3.34095 146.254 2.55166 148.166 2.56248C149.235 2.57329 150.315 2.85441 151.342 3.31933C153.102 1.23258 155.727 -0.291936 159.129 0.0864899C163.374 0.562225 165.685 3.80588 166.549 7.06034C168.493 7.39552 170.502 8.34699 171.939 10.2607C176.421 16.2831 168.958 25.733 168.634 26.133C168.072 26.8358 167.057 26.9439 166.355 26.3817C165.653 25.8195 165.545 24.8031 166.106 24.1003C167.845 21.9163 171.831 15.5371 169.347 12.2069C168.709 11.3528 167.867 10.8122 166.981 10.5094C166.938 12.8449 166.193 15.0613 164.432 15.8723C163.525 16.2939 161.678 16.6075 159.485 14.0126C158.114 12.3907 158.384 10.9203 158.665 10.1851C159.259 8.63892 160.922 7.50364 163.158 7.08196C162.596 5.57907 161.365 3.61126 158.773 3.31933C156.828 3.10309 155.241 3.92481 154.096 5.11415C155.543 6.37917 156.634 7.93613 157.034 9.37414C157.487 11.0176 157.001 12.4664 155.737 13.2557C152.627 15.1803 150.812 14.3045 150.013 13.6125C148.382 12.1961 148.199 9.28765 149.549 6.20618C149.559 6.17374 149.581 6.14131 149.592 6.10887C149.441 6.05481 149.279 6.00075 149.127 5.9575C146.816 5.34121 145.12 6.71435 144.094 10.0445C143.425 12.2069 143.608 13.9261 144.137 15.256C147.302 13.472 150.575 13.8071 152.486 16.0993C155.003 19.1159 154.247 20.954 153.577 21.7757C152.216 23.4408 149.117 23.4624 146.049 21.8081C145.163 21.3324 144.299 20.7269 143.533 19.9809C142.474 21.3757 141.934 23.2029 142.614 25.1599C142.917 26.0357 143.435 26.7601 144.083 27.344C145.228 25.4735 146.838 24.1328 148.425 23.8408C149.775 23.5921 151.061 24.0787 151.957 25.1815C153.901 27.571 153.675 29.2902 153.145 30.3173C152.378 31.7986 150.51 32.5771 148.144 32.4041C147.388 32.35 146.589 32.1986 145.801 31.95C145.639 33.1393 145.779 34.6098 146.902 35.8423C147.529 36.5235 148.393 37.0101 149.322 37.3452C149.462 36.9019 149.624 36.4803 149.797 36.091C151.19 33.1285 153.329 32.7609 154.733 33.3447C155.824 33.7988 159.129 35.1828 159.097 37.6263C159.086 38.3616 158.74 39.7239 156.602 40.5456C155.435 40.9889 153.804 41.2268 152.054 41.1295C152.119 42.9027 152.746 45.5841 155.64 47.1194C156.364 47.5087 157.077 47.6276 157.725 47.5844C157.401 44.4272 158.049 40.9781 159.809 39.8212C160.738 39.2049 161.862 39.259 162.801 39.9726C165.059 41.6701 165.437 44.6002 163.752 47.26C163.179 48.1574 162.391 48.9683 161.462 49.5846C162.056 51.2281 163.006 52.1363 164.292 52.266C164.907 52.3309 165.534 52.3309 166.16 52.266C165.113 49.6387 165.123 47.3789 166.214 46.0058C166.711 45.3895 167.867 44.4056 170.103 44.8489C175.319 45.8868 175.751 48.352 175.546 49.736C175.265 51.5524 173.472 53.2283 171.053 54.3095C172.662 56.3855 174.898 58.0397 177.22 58.1587C178.333 58.2127 179.489 57.9316 180.633 57.3369C179.553 53.0661 180.407 48.7629 182.772 47.1843C183.82 46.4815 186.995 44.3515 189.112 46.0274C189.868 46.6221 190.937 48.1466 189.641 51.5632C188.777 53.8554 186.952 56.6017 184.522 58.6128C185.764 61.2726 188.885 65.3271 196.349 64.8298C198.163 64.7108 199.74 63.8026 200.971 62.4835C198.995 60.1373 197.699 57.4234 197.062 55.0556C196.176 51.7903 196.457 49.1305 197.839 47.7573C198.725 46.8816 199.956 46.6004 201.306 46.9789C205.313 48.1033 207.495 51.7579 206.998 56.5368C206.804 58.4398 206.167 60.386 205.173 62.1267C206.534 63.2728 208.143 64.1702 209.979 64.646C212.572 65.3163 214.483 64.7433 215.877 63.7594C213.176 59.7913 210.671 54.6447 211.513 51.2713C211.913 49.6387 213.058 48.5034 214.732 48.0601C217.529 47.314 219.981 48.1033 221.471 50.2225C223.761 53.4878 223.318 59.4994 220.467 63.6188C220.348 63.781 220.24 63.9432 220.121 64.1054C220.802 64.9595 221.482 65.7055 222.109 66.2786C225.911 69.7817 233.979 74.3445 234.054 74.3985C234.832 74.8418 235.113 75.8257 234.67 76.6042C234.368 77.134 233.828 77.4259 233.255 77.4259H233.234ZM216.719 51.0226C216.363 51.0226 215.963 51.0767 215.542 51.1956C214.926 51.3578 214.743 51.6497 214.645 52.0498C214.159 53.996 215.909 57.8992 218.102 61.2942C220.078 58.0505 220.1 53.9203 218.804 52.0822C218.307 51.3686 217.616 51.0118 216.719 51.0118V51.0226ZM200.161 50.0603H200.107C199.935 50.1901 199.557 51.2389 199.978 53.3689C200.388 55.4124 201.349 57.6613 202.829 59.6399C203.326 58.5371 203.65 57.3586 203.769 56.2017C203.931 54.6879 203.909 51.0767 200.431 50.1036C200.302 50.0712 200.215 50.0603 200.161 50.0603ZM186.995 48.6764C186.639 48.7413 185.893 48.9899 184.565 49.8873C183.766 50.428 183.15 52.5471 183.496 55.1529C183.993 54.6339 184.479 54.0608 184.932 53.4337C186.531 51.2172 187.006 49.39 186.995 48.6764ZM169.023 47.9844C168.828 47.9844 168.753 48.0277 168.753 48.0277C168.612 48.1682 168.439 49.1846 169.152 51.0226C169.217 51.1848 169.282 51.3362 169.357 51.4984C170.351 51.0983 171.194 50.601 171.755 50.0712C172.252 49.6062 172.349 49.2927 172.349 49.2386C172.306 49.0981 171.68 48.471 169.487 48.0385C169.293 47.9952 169.141 47.9844 169.033 47.9844H169.023ZM161.332 43.0649C161.116 43.6595 160.943 44.611 160.911 45.6922C160.954 45.6273 160.998 45.5733 161.03 45.5084C161.268 45.13 161.894 43.9839 161.332 43.0541V43.0649ZM152.551 37.8966C152.638 37.8966 152.735 37.8966 152.821 37.8966C154.161 37.8966 155.079 37.6588 155.575 37.4425C155.251 37.183 154.636 36.7938 153.502 36.3181C153.361 36.3829 152.918 36.9236 152.562 37.8966H152.551ZM146.935 28.8901C147.356 29.009 147.766 29.0955 148.166 29.1388C149.516 29.2794 150.197 28.9442 150.272 28.8036C150.294 28.7171 150.24 28.1873 149.441 27.2142C149.246 26.9655 149.127 26.9872 149.009 27.0088C148.479 27.1061 147.637 27.7765 146.924 28.8793L146.935 28.8901ZM146.082 17.8725C146.244 18.0131 146.395 18.132 146.535 18.2401C148.404 19.6349 150.337 19.8836 150.985 19.7106C150.92 19.4727 150.715 18.9645 150.024 18.1428C149.063 16.9859 147.421 17.2238 146.082 17.8725ZM163.752 10.2391C162.542 10.4662 161.818 10.996 161.7 11.3095C161.635 11.4717 161.916 11.8177 161.97 11.8826C162.747 12.8016 163.168 12.8665 163.168 12.8665C163.385 12.7043 163.763 11.7096 163.752 10.2391ZM152.357 7.89288C151.676 9.6877 151.914 10.9203 152.152 11.1257C152.206 11.169 152.756 11.2447 153.977 10.4986C154.009 9.99044 153.372 8.89841 152.357 7.89288Z" fill="#392727"/>
<path d="M160.879 27.6575C160.879 24.8896 163.114 22.6515 165.879 22.6515C168.645 22.6515 170.88 24.8896 170.88 27.6575C170.88 30.4254 168.645 32.6636 165.879 32.6636C163.114 32.6636 160.879 30.4254 160.879 27.6575Z" fill="#81DEF6"/>
<path d="M171.356 27.7224C171.356 24.9545 173.591 22.7164 176.356 22.7164C179.121 22.7164 181.357 24.9545 181.357 27.7224C181.357 30.4903 179.121 32.7284 176.356 32.7284C173.591 32.7284 171.356 30.4903 171.356 27.7224Z" fill="#81DEF6"/>
<path d="M93.2114 237.349C94.3887 237.349 95.4471 237.943 96.5812 239.284C97.7153 240.625 97.9529 241.76 97.9529 242.722C97.9529 243.685 96.5812 247.112 95.3607 247.112C94.1402 247.112 92.1529 245.274 90.5543 243.079C88.9558 240.884 88.6858 239.252 88.9558 238.343C89.2366 237.435 92.0125 237.349 93.1898 237.349H93.2114Z" fill="#392727"/>
<path d="M256.045 238.333C256.045 237.197 257.082 236.668 260.581 235.208C264.081 233.748 268.488 231.986 269.816 232.591C271.145 233.197 270.993 234.84 269.816 236.095C268.639 237.349 260.981 242.225 259.49 242.225C258 242.225 256.045 239.468 256.045 238.333Z" fill="#392727"/>
<path d="M79.7427 179.136C77.2153 179.136 74.4827 178.617 71.6529 177.266C59.2643 171.362 61.9213 151.316 62.0401 150.462C62.1697 149.576 62.9798 148.959 63.8654 149.078C64.7511 149.208 65.3668 150.019 65.248 150.905C65.2264 151.089 62.7962 169.448 73.0354 174.325C83.3178 179.223 91.9369 171.189 92.2933 170.843C92.9413 170.227 93.9674 170.248 94.5831 170.897C95.1987 171.546 95.1771 172.573 94.5291 173.189C94.4535 173.265 88.2214 179.125 79.7319 179.125L79.7427 179.136Z" fill="#392727"/>
<path d="M63.671 176.022C62.9366 176.022 62.1805 175.968 61.4136 175.838C59.3507 175.514 57.7846 174.411 56.8881 172.66C53.4858 165.967 61.0356 150.895 61.9105 149.197C62.3209 148.397 63.293 148.083 64.0923 148.494C64.8915 148.905 65.2047 149.878 64.7943 150.678C61.7917 156.517 57.7846 167.253 59.7827 171.189C60.2039 172.011 60.8736 172.476 61.9105 172.638C70.7024 174.022 76.9453 164.237 77.0101 164.129C77.4853 163.372 78.4898 163.145 79.2459 163.621C80.0019 164.096 80.2395 165.091 79.7643 165.848C79.4835 166.291 73.3054 176.011 63.671 176.011V176.022Z" fill="#392727"/>
<path d="M69.6007 235.749C68.0022 235.749 66.4576 235.381 65.0967 234.473C63.6494 233.5 62.8501 232.126 62.7961 230.494C62.6233 224.763 72.4197 217.152 73.5322 216.297C74.245 215.757 75.2603 215.897 75.8004 216.611C76.3404 217.325 76.2 218.341 75.4871 218.882C71.7825 221.704 65.9392 227.315 66.0256 230.397C66.0364 230.807 66.1444 231.283 66.8789 231.77C71.2316 234.678 80.5419 228.115 83.4582 225.585C84.1386 225.001 85.1539 225.077 85.748 225.747C86.3312 226.428 86.2556 227.445 85.5859 228.039C84.4951 228.98 76.4268 235.749 69.5899 235.749H69.6007Z" fill="#392727"/>
<path d="M261.769 177.071C248.376 177.071 232.564 161.653 231.808 160.896C231.171 160.269 231.16 159.242 231.786 158.604C232.413 157.966 233.439 157.955 234.076 158.582C234.281 158.777 254.284 178.293 266.381 172.908C278.705 167.426 284.354 136.158 284.408 135.844C284.559 134.958 285.413 134.374 286.287 134.525C287.173 134.676 287.756 135.52 287.605 136.406C287.367 137.758 281.6 169.686 267.71 175.871C265.831 176.703 263.832 177.071 261.78 177.071H261.769Z" fill="#392727"/>
<path d="M247.372 182.109C234.486 182.109 219.063 162.745 218.382 161.88C217.832 161.177 217.95 160.161 218.652 159.598C219.355 159.047 220.37 159.166 220.931 159.869C225.522 165.686 239.498 180.433 248.906 178.736C258.292 177.06 265.755 158.506 267.84 151.489C268.099 150.635 268.995 150.138 269.859 150.397C270.713 150.657 271.209 151.554 270.95 152.419C270.626 153.522 262.742 179.547 249.478 181.926C248.787 182.044 248.085 182.109 247.372 182.109Z" fill="#392727"/>
<path d="M228.33 247.242C227.596 247.242 226.872 247.177 226.17 247.047C213.079 244.658 205.54 219.368 205.227 218.287C204.979 217.433 205.465 216.524 206.329 216.276C207.193 216.027 208.089 216.514 208.338 217.379C208.413 217.627 215.617 241.814 226.753 243.858C237.943 245.89 254.414 225.985 254.587 225.78C255.149 225.088 256.175 224.99 256.866 225.553C257.557 226.126 257.654 227.142 257.093 227.834C256.412 228.667 241.043 247.242 228.341 247.242H228.33Z" fill="#392727"/>
<path d="M85.0999 53.6175C83.6418 49.9847 83.7498 46.5248 85.3159 45.8977C86.8929 45.2706 89.3447 47.7033 90.792 51.3362C92.2393 54.9691 93.233 60.7968 91.6668 61.4239C90.0899 62.051 86.5472 57.2504 85.0999 53.6175Z" fill="#FFF39E"/>
<path d="M252.654 39.0319C255.429 34.4908 258.853 31.5175 260.301 32.4041C261.748 33.2907 260.668 37.6912 257.881 42.2432C255.095 46.7951 249.943 52.8499 248.495 51.9633C247.048 51.0767 249.867 43.5839 252.643 39.0319H252.654Z" fill="#FFF39E"/>
<path d="M262.115 55.0339C264.988 53.0877 267.721 52.093 268.207 52.8174C268.693 53.5418 266.759 55.7043 263.876 57.6613C261.003 59.6075 256.391 61.9537 255.905 61.2293C255.419 60.5049 259.231 56.9909 262.104 55.0339H262.115Z" fill="#FFF39E"/>
<path d="M223.102 56.0935C222.228 54.5906 222.066 53.0553 222.735 52.6661C223.405 52.2768 224.658 53.1851 225.522 54.6879C226.386 56.1908 227.196 58.6884 226.526 59.0777C225.857 59.4669 223.977 57.5964 223.102 56.0935Z" fill="#FFF39E"/>
<path d="M80.7256 65.1217C79.2459 63.4999 78.4034 61.8456 78.8462 61.4347C79.2891 61.0239 80.8552 62.0186 82.3457 63.6404C83.8254 65.2622 85.694 67.9653 85.2511 68.3762C84.8083 68.787 82.2161 66.7435 80.7364 65.1217H80.7256Z" fill="#FFF39E"/>
<path d="M102.705 49.9955C103.127 48.6872 103.926 47.7682 104.509 47.952C105.092 48.1358 105.211 49.3467 104.79 50.6658C104.369 51.9849 103.332 53.7797 102.759 53.5959C102.187 53.4121 102.295 51.3146 102.705 49.9955Z" fill="#FFF39E"/>
<path d="M128.692 84.8971C128.692 84.8971 129.383 79.6316 132.062 77.5232C134.741 75.4149 136.901 75.4581 138.499 76.4853C140.098 77.5233 141.88 79.2099 142.679 83.1672C143.479 87.1136 143.641 95.0498 143.641 95.0498L133.758 92.2819L128.681 84.8863L128.692 84.8971Z" fill="#F7EDE5"/>
<path d="M138.499 76.4961C140.098 77.5341 141.88 79.2208 142.679 83.178C143.479 87.1245 143.641 95.0606 143.641 95.0606L133.758 92.2927C133.758 92.2927 136.89 75.4581 138.489 76.4961H138.499Z" fill="#A16767"/>
<path d="M142.679 83.178C143.479 87.1245 143.641 95.0606 143.641 95.0606L138.791 93.6983C138.791 93.6983 138.942 88.7355 139.936 85.4269C140.713 82.8537 142.334 81.4373 142.679 83.1672V83.178Z" fill="#81DEF6"/>
<path d="M143.219 87.2326L143.857 94.7254L141.113 94.347C141.113 94.347 141.124 89.8924 141.653 88.1084C142.182 86.3244 143.219 87.2326 143.219 87.2326Z" fill="#E4F2F6"/>
<path d="M186.704 105.948C185.71 101.97 189.62 99.5584 194.966 95.958C200.302 92.3575 206.491 92.1954 208.78 95.5904C211.07 98.9962 208.608 104.673 203.261 108.273C200.129 110.392 195.15 111.376 191.748 110.381C189.35 109.679 187.298 108.316 186.714 105.948H186.704Z" fill="#F6EBEB"/>
<path d="M183.463 126.546C183.463 113.69 192.946 100.596 202.278 91.9899C212.172 82.8753 223.491 75.1338 238.915 75.1338C250.321 75.1338 259.404 77.8584 268.088 83.6538C282.248 93.1144 292.93 109.462 292.93 125.864C292.93 152.322 269.028 167.535 239.023 167.535C209.018 167.535 183.452 152.992 183.452 126.546H183.463Z" fill="url(#paint0_linear_214815_24)"/>
<path d="M187.233 111.463C190.851 103.959 196.586 97.05 202.278 91.8169C212.172 82.7131 223.491 74.9608 238.915 74.9608C243.602 74.9608 259.166 62.9268 240.719 98.3691C234.314 110.673 228.038 82.086 223.858 95.7418C219.095 111.268 185.742 114.555 187.233 111.463Z" fill="#EFD5D5"/>
<path d="M268.088 83.4808C274.169 87.5461 279.612 92.8765 283.836 98.9422C289.452 106.997 292.919 116.339 292.919 125.691C292.919 141.066 284.667 152.938 272.019 159.944C262.904 164.994 251.584 167.362 239.012 167.362C229.853 167.362 221.115 166.01 213.382 163.372C204.201 160.236 252.578 175.114 270.227 145.034C287.875 114.966 263.93 80.702 268.077 83.4699L268.088 83.4808Z" fill="#A16767"/>
<path d="M292.93 125.702C292.93 141.077 284.678 152.949 272.03 159.955C262.914 165.005 251.595 167.372 239.023 167.372C234.627 167.372 259.955 167.535 273.888 156.333C288.966 144.213 292.93 120.837 292.93 125.702Z" fill="#F190FF"/>
<path d="M52.719 128.124C52.719 114.587 61.2408 102.207 71.8149 93.5253C81.8057 85.3188 93.4166 80.4317 108.343 80.4317C122.374 80.4317 135.745 86.173 145.541 93.5253C157.185 102.262 164.81 114.187 164.81 128.503C164.81 154.841 139.731 175.806 109.002 175.806C78.2738 175.806 52.719 154.463 52.719 128.124Z" fill="url(#paint1_linear_214815_24)"/>
<path d="M52.719 128.124C52.719 114.587 61.2408 102.207 71.8149 93.5253C81.8057 85.3188 93.4166 80.4317 108.343 80.4317C115.04 80.4317 124.015 83.4591 108.765 111.03C101.042 124.989 75.606 144.634 61.6621 144.418C55.6244 144.332 52.719 132.276 52.719 128.113V128.124Z" fill="url(#paint2_linear_214815_24)"/>
<path d="M145.541 93.5253C157.185 102.261 164.81 114.187 164.81 128.503C164.81 154.841 139.731 175.806 109.002 175.806C89.3987 175.806 71.9013 167.113 61.8025 153.987C59.8475 151.446 79.3647 164.431 99.6055 161.88C117.924 159.577 122.946 150.776 128.692 145.986C163.849 116.728 141.189 90.26 145.552 93.5253H145.541Z" fill="#C38686"/>
<path d="M110.017 159.252C110.017 158.366 110.741 157.641 111.627 157.641C112.512 157.641 113.236 158.366 113.236 159.252C113.236 160.139 112.512 160.863 111.627 160.863C110.741 160.863 110.017 160.139 110.017 159.252Z" fill="#E5D5D5"/>
<path d="M164.81 128.503C164.81 154.841 139.731 175.806 109.002 175.806C104.239 175.806 128.39 175.709 143.846 163.696C164.81 147.424 164.81 124.826 164.81 128.503Z" fill="#F190FF"/>
<path d="M117.135 135.833L158.416 114.101L118.485 140.191L111.94 147.132C111.94 147.132 110.547 153.349 105.038 159.198C99.5299 165.048 89.8955 170.519 89.8955 170.519C89.8955 170.519 99.6811 163.729 104.498 157.598C109.315 151.468 109.175 145.975 109.175 145.975L117.135 135.844V135.833Z" fill="url(#paint3_linear_214815_24)"/>
<path d="M90.4247 122.037C108.829 109.754 126.953 83.9024 126.953 83.9024C126.953 83.9024 109.488 111.711 91.0836 123.994C72.6789 136.277 53.3346 133.011 53.3346 133.011C53.3346 133.011 72.0201 134.32 90.4247 122.037Z" fill="url(#paint4_linear_214815_24)"/>
<path d="M246.022 142.45C246.022 142.45 249.359 149.716 256.045 153.187C262.731 156.657 272.765 156.322 272.765 156.322C272.765 156.322 261.413 158.279 254.727 154.809C248.042 151.338 246.022 142.45 246.022 142.45Z" fill="url(#paint5_linear_214815_24)"/>
<path d="M195.344 112.155C203.304 95.1146 216.492 82.3779 233.784 87.438C251.077 92.4981 265.561 118.436 260.841 134.59C256.131 150.743 238.828 152.246 221.536 147.197C204.244 142.148 188.216 127.4 195.333 112.165L195.344 112.155Z" fill="url(#paint6_linear_214815_24)"/>
<path d="M251.638 100.91C259.404 111.106 263.724 124.686 260.841 134.59C256.131 150.743 238.828 152.246 221.536 147.197C216.211 145.64 211.005 143.164 206.556 140.039C201.846 136.731 232.262 145.489 240.719 133.844C254.965 114.209 249.046 97.515 251.638 100.921V100.91Z" fill="#1B4D86"/>
<path d="M258.324 112.447C261.543 120.08 262.731 128.124 260.841 134.59C256.131 150.743 238.828 152.246 221.536 147.197C212.118 144.44 241.529 154.333 251.973 142.71C266.111 127 256.121 107.246 258.313 112.447H258.324Z" fill="#0D396A"/>
<path d="M195.344 112.155C203.304 95.1146 216.492 82.3779 233.784 87.438C235.469 87.9246 237.122 88.6165 238.742 89.4815C239.909 90.0978 241.053 90.8114 242.177 91.6007C248.484 96.0445 233.914 82.3238 215.65 92.2927C206.955 97.0392 200.399 107.895 196.813 114.112C194.502 118.112 193.411 120.199 193.767 117.485C194.005 115.723 194.523 113.939 195.355 112.155H195.344Z" fill="#0D396A"/>
<path d="M87.8217 136.536C81.028 123.237 93.3842 102.532 110.957 93.5253C128.53 84.5187 145.887 92.5738 152.519 105.948C161.721 124.491 153.07 136.039 135.497 145.045C117.924 154.052 94.6155 149.835 87.8217 136.536Z" fill="url(#paint7_linear_214815_24)"/>
<path d="M87.8217 136.536C84.8947 130.816 91.8397 142.418 105.027 146.386C121.456 151.316 124.933 149.305 119.328 149.77C105.913 150.873 92.6173 145.91 87.8217 136.536Z" fill="#0D396A"/>
<path d="M110.957 93.5253C128.53 84.5187 145.887 92.5738 152.519 105.948C156.504 113.982 157.142 120.696 155.154 126.459C154.69 127.8 156.029 105.743 138.273 95.0498C124.458 86.7352 101.636 98.2934 110.957 93.5144V93.5253Z" fill="#0C3869"/>
<path d="M70.4108 107.83C75.984 99.5801 82.6265 94.3146 85.2403 96.0877C87.8541 97.8609 85.4455 105.981 79.8723 114.231C74.2991 122.48 67.6565 127.746 65.0427 125.973C62.4289 124.199 64.8375 116.079 70.4108 107.83Z" fill="url(#paint8_linear_214815_24)"/>
<path d="M57.3201 93.2549L69.1254 102.078L75.1415 113.376C75.1415 113.376 72.3441 115.615 70.6916 116.425C69.039 117.236 68.0454 117.355 66.6413 117.074C65.2371 116.793 60.3228 115.15 56.9421 105.959C53.5614 96.7689 57.3201 93.2658 57.3201 93.2658V93.2549Z" fill="#E7D4D4"/>
<path d="M56.7909 93.8712C57.6117 92.1629 61.4568 91.4061 66.8897 93.8712C72.3225 96.3472 77.4529 101.224 78.5006 102.91C79.5375 104.597 79.3646 108.165 77.8633 110.771C76.362 113.376 74.8391 113.831 73.0786 113.831C71.318 113.831 62.9042 109.592 58.9834 104.521C55.0627 99.4503 55.9916 95.5904 56.8125 93.8712H56.7909Z" fill="url(#paint9_linear_214815_24)"/>
<path d="M66.8789 93.8713C72.3117 96.3472 77.4421 101.224 78.4898 102.91C79.5267 104.597 79.3539 108.165 77.8525 110.771C77.0533 112.155 68.6394 108.187 65.3344 103.062C62.4073 98.5097 64.3299 92.7143 66.8789 93.8713Z" fill="#81DEF6"/>
<path d="M72.7653 97.4501C75.6384 99.6125 77.8417 101.872 78.4898 102.91C79.0406 103.808 79.2459 105.224 79.1054 106.759C79.0406 107.451 74.4071 104.802 72.5817 102.067C70.8536 99.4828 71.9013 96.7905 72.7653 97.4501Z" fill="#E4F2F6"/>
<path d="M85.4131 78.172C85.4131 76.5069 91.71 77.9233 99.0114 77.9233C106.313 77.9233 112.35 72.6037 112.35 74.2796C112.35 75.9555 105.946 81.1994 98.6442 81.1994C91.3428 81.1994 85.4239 79.8479 85.4239 78.172H85.4131Z" fill="#A16365"/>
<path d="M87.4653 75.9663C87.4653 69.5763 92.6389 64.4081 99.0114 64.4081C105.384 64.4081 110.558 69.5871 110.558 75.9663C110.558 82.3455 105.384 87.5245 99.0114 87.5245C92.6389 87.5245 87.4653 82.3455 87.4653 75.9663Z" fill="url(#paint10_linear_214815_24)"/>
<path d="M85.9316 77.5232C86.7308 77.4367 91.44 80.6155 99.0114 79.9776C106.594 79.3397 111.054 74.3985 111.767 73.9985C112.48 73.5984 114.629 73.6957 116.876 76.4961C119.123 79.2964 117.675 82.1076 117.675 82.1076C117.675 82.1076 113.96 89.0166 100.578 90.4222C87.1845 91.8277 81.9677 86.8325 81.3628 86.3244C80.7472 85.8162 81.1792 83.0375 82.3241 80.8426C83.469 78.6477 85.1431 77.6206 85.9424 77.5341L85.9316 77.5232Z" fill="url(#paint11_linear_214815_24)"/>
<path d="M116.876 76.4961C119.123 79.2964 117.675 82.1076 117.675 82.1076C117.675 82.1076 113.96 89.0166 100.578 90.4222C87.1845 91.8278 81.9677 86.8325 81.3628 86.3244C81.1252 86.1297 85.8236 89.7194 93.071 89.7194C97.5857 89.7194 101.712 89.0274 104.509 87.6867C113.247 83.4916 115.893 75.2635 116.887 76.5069L116.876 76.4961Z" fill="#DAB2B1"/>
<path d="M270.54 113.009C266.306 106.986 264.859 100.705 267.31 98.9746C269.762 97.2447 275.184 100.726 279.418 106.759C283.652 112.782 285.099 119.064 282.648 120.794C280.196 122.524 274.774 119.042 270.54 113.02V113.009Z" fill="url(#paint12_linear_214815_24)"/>
<path d="M273.91 102.078C273.91 102.078 281.827 102.91 286.007 104.521C290.186 106.132 292.627 108.014 294.518 111.398C296.408 114.782 293.556 118.047 293.556 118.047C293.556 118.047 290.5 121.237 287.303 121.237C284.106 121.237 281.74 120.685 277.776 117.074C273.812 113.463 270.497 106.781 270.497 106.781C270.497 106.781 269.686 105.105 270.939 103.418C272.192 101.732 273.91 102.078 273.91 102.078Z" fill="#81DEF6"/>
<path d="M273.91 102.078C273.91 102.078 281.827 102.91 286.007 104.521C290.186 106.132 292.627 108.014 294.518 111.398C296.408 114.782 293.556 118.047 293.556 118.047C293.556 118.047 285.661 118.847 280.93 114.122C273.575 106.77 271.857 102.532 272.041 102.424C273.002 101.894 273.899 102.067 273.899 102.067L273.91 102.078Z" fill="#A16767"/>
<path d="M226.451 73.5984C226.451 72.7551 232.78 72.0631 240.6 72.0631C248.42 72.0631 254.241 72.5172 254.241 73.3714C254.241 74.2255 248.42 75.1338 240.6 75.1338C232.78 75.1338 226.451 74.4526 226.451 73.5984Z" fill="#A16767"/>
<path d="M227.671 71.6198C227.671 64.8406 233.115 59.3372 239.822 59.3372C246.529 59.3372 251.973 64.8406 251.973 71.6198C251.973 78.399 246.529 83.9024 239.822 83.9024C233.115 83.9024 227.671 78.4099 227.671 71.6198Z" fill="url(#paint13_linear_214815_24)"/>
<path d="M226.98 73.1011C226.98 73.1011 231.559 77.2854 239.822 76.8853C248.085 76.4853 253.82 72.9821 253.82 72.9821C253.82 72.9821 255.807 74.0526 256.477 75.7933C257.147 77.5341 257.438 78.6477 256.499 79.9668C255.559 81.2967 248.906 85.7081 237.424 84.8863C228.74 84.2592 223.869 79.8587 223.113 78.6369C222.357 77.426 222.541 76.3339 223.578 74.95C224.615 73.566 226.98 73.0903 226.98 73.0903V73.1011Z" fill="url(#paint14_linear_214815_24)"/>
<path d="M240.351 82.2482C248.808 79.2424 253.82 72.993 253.82 72.993C253.82 72.993 255.807 74.0634 256.477 75.8041C257.147 77.5449 257.438 78.6585 256.499 79.9776C255.559 81.3075 248.906 85.7189 237.424 84.8971C228.74 84.27 223.869 79.8695 223.113 78.6477C222.67 77.9341 225.576 81.1886 229.896 82.6807C232.964 83.7402 236.83 83.4916 240.351 82.2374V82.2482Z" fill="#C38686"/>
<path opacity="0.58" d="M108.765 140.191C113.236 126.524 122.287 125.086 125.808 114.122C129.643 102.218 144.062 101.667 149.873 110.392C155.683 119.118 148.857 133.811 139.277 140.191C129.697 146.57 105.503 150.149 108.754 140.191H108.765Z" fill="#8FBCF0"/>
<path opacity="0.9" d="M110.482 118.891C108.657 114.695 112.458 108.543 117.654 115.539C117.308 107.97 122.946 108.251 124.761 112.447C126.586 116.642 126.251 123.875 122.071 125.702C117.881 127.53 112.307 123.086 110.482 118.891Z" fill="#E8F3FF"/>
<path opacity="0.9" d="M114.284 119.518C113.215 117.161 115.299 113.625 118.323 117.55C118.053 113.257 121.25 113.366 122.32 115.723C123.4 118.08 123.281 122.188 120.926 123.27C118.572 124.351 115.364 121.886 114.284 119.529V119.518Z" fill="#F5FAFC"/>
<path opacity="0.87" d="M128.746 112.025C127.655 108.814 131.155 104.37 134.687 109.83C135.032 104.154 139.461 104.608 140.551 107.83C141.642 111.052 140.8 116.447 137.344 117.626C133.887 118.804 129.848 115.247 128.746 112.025Z" fill="#E8F3FF"/>
<path opacity="0.87" d="M131.63 112.522C131.058 110.652 133.153 108.143 135.097 111.365C135.399 108.1 137.938 108.435 138.521 110.317C139.093 112.187 138.51 115.29 136.49 115.906C134.471 116.523 132.202 114.404 131.63 112.522Z" fill="#F2F8FB"/>
<path opacity="0.54" d="M212.226 132.622C213.079 122.891 237.759 104.716 248.528 105.667C259.285 106.619 257.211 120.945 256.358 130.676C255.505 140.407 246.087 147.532 235.329 146.591C224.571 145.64 211.373 142.364 212.237 132.633L212.226 132.622Z" fill="#84B8F1"/>
<path opacity="0.84" d="M209.958 105.916C210.941 102.499 216.427 100.791 216.136 107.592C219.754 102.932 223.124 105.981 222.152 109.387C221.18 112.793 217.302 116.923 213.76 115.863C210.217 114.804 208.975 109.322 209.947 105.905L209.958 105.916Z" fill="#F5FAFC"/>
<path opacity="0.84" d="M211.394 108.208C211.988 106.121 215.347 105.073 215.175 109.235C217.378 106.392 219.452 108.251 218.847 110.338C218.253 112.425 215.887 114.944 213.716 114.295C211.556 113.647 210.789 110.295 211.394 108.208Z" fill="#EFF5FB"/>
<path opacity="0.83" d="M227.261 110.003C228.784 106.543 234.821 105.516 233.547 112.663C238.029 108.262 241.161 111.96 239.638 115.42C238.116 118.88 233.45 122.686 229.853 121.053C226.267 119.431 225.738 113.463 227.261 109.992V110.003Z" fill="#F5FAFC"/>
<path opacity="0.83" d="M228.708 112.879C229.605 110.836 233.169 110.241 232.413 114.447C235.059 111.852 236.906 114.036 236.009 116.069C235.113 118.112 232.359 120.35 230.242 119.388C228.125 118.426 227.812 114.912 228.708 112.868V112.879Z" fill="#F2F8FC"/>
<path d="M115.958 103.408C110.558 107.354 105.038 113.366 105.038 113.366C105.038 113.366 109.477 105.819 113.236 102.51C117.006 99.2016 121.348 99.4503 115.958 103.408Z" fill="#B2D1F2"/>
<path d="M234.919 102.856C239.131 105.819 243.451 110.317 243.451 110.317C243.451 110.317 239.984 104.662 237.046 102.186C234.108 99.7098 230.706 99.8936 234.929 102.856H234.919Z" fill="#B2D1F2"/>
<path d="M129.124 97.7636C133.358 97.8501 138.078 98.7584 138.078 98.7584C138.078 98.7584 133.769 96.8662 130.701 96.5851C127.634 96.2932 124.89 97.6771 129.124 97.7636Z" fill="#B2D1F2"/>
<path d="M220.154 97.3744C215.92 97.4609 211.2 98.3691 211.2 98.3691C211.2 98.3691 215.509 96.477 218.577 96.1959C221.644 95.9147 224.388 97.2879 220.154 97.3744Z" fill="#B2D1F2"/>
<path d="M116.779 131.238C122.989 134.049 129.567 131.022 129.567 131.022C129.567 131.022 122.136 136.06 115.936 133.249C109.737 130.438 110.255 128.178 111.011 128.416C111.767 128.665 110.579 128.427 116.779 131.238Z" fill="#B2D1F2"/>
<path d="M231.462 126.362C225.252 129.173 218.674 126.146 218.674 126.146C218.674 126.146 226.105 131.184 232.316 128.373C238.526 125.562 237.997 123.291 237.241 123.54C236.485 123.789 237.673 123.551 231.473 126.362H231.462Z" fill="#B2D1F2"/>
<path opacity="0.81" d="M90.522 71.5874C89.9063 69.9439 92.3797 66.8733 94.9179 65.9218C97.4453 64.9703 99.9943 65.5434 100.61 67.1868C101.226 68.8303 99.6703 70.9386 97.1321 71.8793C94.6047 72.8308 91.1268 73.2308 90.522 71.5874Z" fill="url(#paint15_linear_214815_24)"/>
<path opacity="0.81" d="M231.678 66.5705C231.052 64.9271 232.931 62.051 235.005 61.2509C237.079 60.4508 239.271 61.132 239.909 62.7754C240.535 64.4189 239.369 66.3867 237.284 67.1868C235.21 67.9869 232.305 68.214 231.667 66.5705H231.678Z" fill="url(#paint16_linear_214815_24)"/>
<path opacity="0.81" d="M88.6966 73.5768C88.6966 72.9497 89.2258 72.4415 89.8847 72.4415C90.5435 72.4415 91.0728 72.9497 91.0728 73.5768C91.0728 74.2039 90.5435 74.7121 89.8847 74.7121C89.2258 74.7121 88.6966 74.2039 88.6966 73.5768Z" fill="url(#paint17_linear_214815_24)"/>
<path d="M255.419 147.218C256.11 145.737 257.849 145.078 259.307 145.748C260.765 146.418 261.391 148.159 260.7 149.64C260.009 151.122 258.27 151.781 256.812 151.111C255.354 150.441 254.727 148.7 255.419 147.218Z" fill="#9B6161"/>
<path d="M260.981 140.493C260.841 138.028 262.612 135.801 264.934 135.531C267.256 135.26 269.254 137.033 269.384 139.499C269.524 141.964 267.753 144.191 265.431 144.461C263.109 144.743 261.111 142.958 260.981 140.493Z" fill="#9B6161"/>
<path d="M255.019 146.883C255.71 145.402 257.449 144.743 258.907 145.413C260.365 146.083 260.992 147.824 260.301 149.305C259.609 150.787 257.87 151.446 256.412 150.776C254.954 150.105 254.328 148.365 255.019 146.872V146.883Z" fill="url(#paint18_linear_214815_24)"/>
<path d="M260.203 139.866C260.063 137.401 261.834 135.174 264.156 134.893C266.479 134.622 268.466 136.396 268.606 138.861C268.747 141.326 266.975 143.553 264.653 143.823C262.331 144.094 260.333 142.321 260.203 139.855V139.866Z" fill="url(#paint19_linear_214815_24)"/>
<path d="M261.305 136.504C262.018 135.639 263.022 135.033 264.156 134.893C266.479 134.622 268.466 136.396 268.606 138.861C268.682 140.147 268.509 136.785 265.496 135.822C262.482 134.86 260.938 136.936 261.294 136.493L261.305 136.504Z" fill="#81DEF6"/>
<path d="M256.002 147.337C256.434 146.408 257.525 145.997 258.432 146.418C259.339 146.84 259.739 147.932 259.307 148.862C258.875 149.792 257.784 150.203 256.877 149.781C255.969 149.359 255.57 148.267 256.002 147.337Z" fill="#F24682"/>
<path d="M261.769 139.682C261.683 138.136 262.796 136.742 264.243 136.569C265.69 136.396 266.943 137.509 267.029 139.055C267.116 140.601 266.003 141.996 264.556 142.169C263.098 142.342 261.856 141.229 261.769 139.682Z" fill="#F24682"/>
<path d="M84.7327 144.753C84.7327 142.872 86.2556 141.347 88.1457 141.347C90.0359 141.347 91.5588 142.872 91.5588 144.753C91.5588 146.635 90.0359 148.17 88.1457 148.17C86.2556 148.17 84.7327 146.645 84.7327 144.753Z" fill="#9B6161"/>
<path d="M83.7606 144.678C83.7606 142.796 85.2835 141.272 87.1737 141.272C89.0638 141.272 90.5868 142.796 90.5868 144.678C90.5868 146.559 89.0638 148.094 87.1737 148.094C85.2835 148.094 83.7606 146.57 83.7606 144.678Z" fill="url(#paint20_linear_214815_24)"/>
<path d="M85.3483 144.57C85.3483 143.564 86.1584 142.753 87.1629 142.753C88.1674 142.753 88.9774 143.564 88.9774 144.57C88.9774 145.575 88.1674 146.386 87.1629 146.386C86.1584 146.386 85.3483 145.575 85.3483 144.57Z" fill="#F24682"/>
<path d="M93.7406 110.771C98.439 103.873 105.038 100.942 105.038 100.942L95.3715 112.155L88.1349 125.032C88.1349 125.032 89.0422 117.669 93.7406 110.76V110.771Z" fill="#F190FF"/>
<path d="M145.606 130.687L151.59 122.048C151.59 122.048 150.629 127.27 147.734 131.908C144.829 136.547 139.698 140.007 139.698 140.007L145.606 130.687Z" fill="#FFF29E"/>
<path d="M209.634 96.6824C215.974 90.4222 222.66 89.7194 222.66 89.7194C222.66 89.7194 216.125 92.9306 210.498 97.6555C204.871 102.391 200.14 108.662 200.14 108.662C200.14 108.662 203.283 102.953 209.623 96.6932L209.634 96.6824Z" fill="#FFF29E"/>
<path d="M250.169 140.191C253.496 137.152 255.829 133.833 255.829 133.833C255.829 133.833 253.885 139.207 250.72 142.007C247.556 144.807 242.522 145.986 242.522 145.986C242.522 145.986 246.843 143.229 250.169 140.191Z" fill="#FFF29E"/>
<path d="M74.8175 96.0553C73.9642 94.8443 75.0335 92.617 77.2045 91.0925C79.3755 89.568 81.8273 89.3085 82.6805 90.5303C83.5338 91.7412 82.4645 93.9685 80.2935 95.4931C78.1226 97.0176 75.6708 97.2663 74.8175 96.0553Z" fill="white"/>
<path d="M84.0954 91.9359C84.0954 91.2655 84.6895 90.7249 85.4131 90.7249C86.1368 90.7249 86.7308 91.2655 86.7308 91.9359C86.7308 92.6062 86.1368 93.1468 85.4131 93.1468C84.6895 93.1468 84.0954 92.6062 84.0954 91.9359Z" fill="white"/>
<path d="M96.592 161.88C96.592 160.063 100.653 158.398 102.835 158.398C105.017 158.398 108.84 159.177 108.84 160.993C108.84 162.81 104.995 164.021 102.813 164.021C100.632 164.021 96.5812 163.707 96.5812 161.891L96.592 161.88Z" fill="#E5D5D5"/>
<path d="M218.674 180.325L226.461 195.506C226.461 195.506 218.89 207.021 209.645 213.767C200.399 220.514 188.442 224.936 188.442 224.936L180.255 217.941C180.255 217.941 181.325 207.561 193.692 194.111C206.069 180.661 218.674 180.325 218.674 180.325Z" fill="#A16767"/>
<path d="M150.92 193.073C150.92 193.073 160.177 195.711 166.862 200.836C173.548 205.95 178.754 214.6 178.754 214.6L170.988 224.947C170.988 224.947 158.049 225.315 150.121 222.504C142.193 219.692 138.067 216.838 138.067 216.838L150.91 193.073H150.92Z" fill="#A16767"/>
<path d="M66.3064 183.32L154.031 194.122C154.031 194.122 151.838 205.842 143.641 216.838C134.211 229.477 117.535 241.382 98.8818 236.992C75.9948 231.607 65.9824 209.929 63.8654 196.068C62.7529 188.802 66.3172 183.32 66.3172 183.32H66.3064Z" fill="url(#paint21_linear_214815_24)"/>
<path d="M66.3064 183.32L88.6966 185.786C88.6966 185.786 96.8944 188.878 95.1231 198.609C93.0601 209.929 87.1629 215.876 81.0712 216.827C68.9526 218.709 65.1723 204.62 63.8654 196.057C62.7529 188.791 66.3172 183.31 66.3172 183.31L66.3064 183.32Z" fill="url(#paint22_linear_214815_24)"/>
<path d="M141.005 193.073L154.042 194.122C154.042 194.122 151.849 205.842 143.651 216.838C134.222 229.477 117.546 241.382 98.8926 236.992C91.5372 235.262 98.7198 237.219 107.792 234.192C113.971 232.126 124.998 224.19 129.578 218.936C141.891 204.793 141.005 193.073 141.005 193.073Z" fill="#C38686"/>
<path d="M143.641 216.827C134.211 229.467 117.535 241.371 98.8818 236.981C87.1305 234.213 104.498 237.857 120.062 232.083C134.816 226.612 147.637 211.475 143.641 216.827Z" fill="#F190FF"/>
<path d="M66.004 184.207C66.5008 180.001 86.612 178.952 110.925 181.861C135.227 184.769 154.528 190.532 154.02 194.738C153.523 198.944 133.412 199.993 109.099 197.084C84.7975 194.176 65.4964 188.413 65.9932 184.207H66.004Z" fill="url(#paint23_linear_214815_24)"/>
<path d="M233.946 170.292C259.869 166.778 291.061 201.885 291.061 207.291C291.061 212.697 286.439 231.575 249.813 236.603C213.187 241.63 200.993 219.952 200.993 216.892C200.993 215 205.929 198.306 214.116 185.526C219.171 177.633 224.064 171.643 233.957 170.302L233.946 170.292Z" fill="url(#paint24_linear_214815_24)"/>
<path d="M254.717 174.238C274.05 183.115 291.061 203.29 291.061 207.291C291.061 212.697 286.439 231.575 249.813 236.603C236.636 238.408 226.613 236.765 219.193 233.759C212.755 231.164 248.225 237.381 257.114 222.493C266.003 207.604 251.217 172.627 254.727 174.238H254.717Z" fill="#A16767"/>
<path d="M283.458 196.068C288.178 201.269 291.051 205.637 291.051 207.28C291.051 212.686 286.428 231.564 249.802 236.592C242.188 237.641 271.512 234.484 280.552 220.395C289.29 206.794 280.595 192.922 283.458 196.068Z" fill="#F190FF"/>
<path d="M61.6621 186.759C61.6621 186.759 65.572 187.105 75.4007 191.311C85.2295 195.516 87.1629 198.382 86.288 200.652C85.4131 202.912 81.0712 209.313 58.1842 211.864C35.2972 214.416 30.426 211.864 27.7366 207.886C25.058 203.907 32.0785 199.387 40.5572 194.111C49.0359 188.824 61.6513 186.759 61.6513 186.759H61.6621Z" fill="url(#paint25_linear_214815_24)"/>
<path d="M61.6621 186.759C61.6621 186.759 65.572 187.105 75.4007 191.311C85.2295 195.516 87.1629 198.382 86.288 200.652C85.4131 202.912 81.0712 209.313 58.1842 211.864C35.2972 214.416 30.426 211.864 27.7366 207.886C25.058 203.907 32.0785 199.387 40.5572 194.111C49.0359 188.824 61.6513 186.759 61.6513 186.759H61.6621Z" fill="url(#paint26_linear_214815_24)"/>
<path d="M84.4086 196.306C86.4068 198.014 86.7632 199.42 86.288 200.652C85.4131 202.912 81.0712 209.313 58.1842 211.864C41.7777 213.692 34.6275 212.902 30.912 210.837C30.1128 210.394 47.2645 210.383 61.662 206.448C67.6025 204.826 78.8894 202.263 79.4834 198.371C80.3043 193.062 74.9039 192.327 76.2 191.786C77.3233 191.321 84.2142 196.133 84.3978 196.284L84.4086 196.306Z" fill="#C88E8E"/>
<path d="M22.2282 207.886C23.7619 208.21 24.95 209.248 25.4684 211.151C25.9869 213.054 24.9716 214.924 23.5567 215.833C22.1526 216.741 8.8351 220.266 2.05217 215.487C-4.74157 210.708 7.25818 209.172 9.68837 208.523C12.1186 207.875 20.6944 207.561 22.2282 207.875V207.886Z" fill="url(#paint27_linear_214815_24)"/>
<path d="M25.2416 213.886C24.8744 214.697 24.2695 215.389 23.5675 215.843C22.1634 216.752 8.8459 220.276 2.06297 215.497C-1.06928 213.292 5.72445 215.584 11.7405 215.562C18.7611 215.541 25.436 213.432 25.2416 213.876V213.886Z" fill="#C88E8E"/>
<path d="M117.913 215.497C131.22 210.826 143.641 215.497 143.641 215.497C143.641 215.497 131.22 212.156 117.913 216.838C104.606 221.509 90.4247 234.202 90.4247 234.202C90.4247 234.202 104.617 220.179 117.913 215.508V215.497Z" fill="url(#paint28_linear_214815_24)"/>
<path d="M24.5287 216.827C26.7429 215.27 28.8059 215.13 29.0867 216.827C29.3675 218.525 27.9094 222.417 25.6196 224.212C23.319 225.996 20.3488 225.163 20.176 223.066C20.0032 220.968 22.3254 218.384 24.5395 216.827H24.5287Z" fill="#CA9393"/>
<path d="M243.451 214.589C257.46 201.896 263.508 198.717 263.508 198.717C263.508 198.717 259.836 200.987 243.667 215.995C227.498 231.002 226.461 235.165 226.461 235.165C226.461 235.165 229.443 227.283 243.451 214.589Z" fill="url(#paint29_linear_214815_24)"/>
<path d="M71.6529 238.333C73.1326 236.559 79.1487 236.981 79.1487 236.981C79.1487 236.981 83.8902 237.273 91.0836 244.409C98.277 251.545 93.6758 256.021 93.6758 256.021C93.6758 256.021 90.4247 262.476 79.1487 262.476C67.8726 262.476 63.8654 258.497 63.8654 255.567C63.8654 252.637 70.1731 240.117 71.6529 238.343V238.333Z" fill="url(#paint30_linear_214815_24)"/>
<path d="M79.1486 236.992C79.1486 236.992 83.8902 237.284 91.0836 244.42C98.277 251.556 93.6758 256.032 93.6758 256.032C93.6758 256.032 90.4247 262.487 79.1486 262.487C73.813 262.487 70.0975 261.59 67.6673 260.346C66.3388 259.654 71.9769 255.319 75.1415 249.729C78.3818 243.998 79.1486 237.014 79.1486 237.014V236.992Z" fill="#C38686"/>
<path d="M94.6695 249.642C96.0952 253.664 93.665 256.021 93.665 256.021C93.665 256.021 90.4139 262.476 79.1378 262.476C77.2693 262.476 75.5952 262.368 74.1046 262.173C72.6141 261.979 81.2548 261.698 87.1521 258.227C92.1421 255.286 94.4211 248.961 94.6587 249.653L94.6695 249.642Z" fill="#F190FF"/>
<path d="M251.973 168.908C258.788 168.54 263.206 170.53 266.111 173.168C269.017 175.806 274.968 184.726 257.093 206.977C239.217 229.229 225.09 214.589 223.07 209.313C221.05 204.036 225.716 191.44 232.942 181.342C240.168 171.243 245.169 169.275 251.973 168.908Z" fill="url(#paint31_linear_214815_24)"/>
<path d="M251.973 168.908C258.788 168.54 263.206 170.53 266.111 173.168C269.017 175.806 274.968 184.726 257.093 206.977C239.217 229.229 225.09 214.589 223.07 209.313C221.05 204.036 225.716 191.44 232.942 181.342C240.168 171.243 245.169 169.275 251.973 168.908Z" fill="url(#paint32_linear_214815_24)"/>
<path d="M266.111 173.168C269.006 175.806 274.968 184.726 257.093 206.977C247.988 218.308 239.855 220.071 233.806 218.384C232.024 217.887 244.434 219.963 251.973 210.621C254.727 207.215 261.51 199.939 263.249 189.472C264.988 179.006 264.794 171.978 266.111 173.168Z" fill="#A16767"/>
<path d="M256.412 247.112C257.158 244.842 260.581 242.139 267.678 238.343C274.774 234.548 278.586 235.219 278.586 235.219C278.586 235.219 288.512 236.949 289.387 247.588C290.262 258.227 284.991 262.476 282.702 263.99C280.412 265.493 268.002 262.325 261.737 258.227C255.473 254.129 255.667 249.393 256.412 247.123V247.112Z" fill="url(#paint33_linear_214815_24)"/>
<path d="M267.678 238.333C274.774 234.538 278.586 235.208 278.586 235.208C278.586 235.208 288.512 236.938 289.387 247.577C290.262 258.216 284.991 262.465 282.702 263.979C280.412 265.482 260.571 242.138 267.678 238.333Z" fill="#A16767"/>
<path d="M289.387 247.577C290.262 258.216 284.991 262.465 282.702 263.979C281.675 264.66 285.369 260.692 286.935 255.513C288.858 249.166 288.901 241.728 289.376 247.577H289.387Z" fill="#F190FF"/>
<path d="M172.652 216.827C174.693 214.589 178.408 212.675 183.463 215.497C188.518 218.308 193.692 224.32 193.692 230.829C193.692 237.338 185.278 236.992 185.278 236.992C185.278 236.992 174.887 233.132 171.647 228.094C168.396 223.055 170.621 219.076 172.662 216.827H172.652Z" fill="#A16767"/>
<path d="M263.487 198.068C261.813 200.771 259.706 203.734 257.103 206.977C247.869 218.471 239.639 220.114 233.558 218.309C231.214 217.606 240.999 218.849 248.56 212.859C259.372 204.296 269.265 188.77 263.487 198.068Z" fill="#F190FF"/>
<path d="M170.47 228.18C171.042 227.347 173.634 224.45 181.173 228.786C188.712 233.121 186.163 237.219 185.148 238.343C184.133 239.457 179.985 242.722 173.732 238.343C167.478 233.965 169.908 229.013 170.481 228.18H170.47Z" fill="#C38686"/>
<path d="M166.873 227.12C166.43 225.801 167.262 224.342 168.731 223.855C170.2 223.369 171.734 224.039 172.176 225.358C172.619 226.677 171.788 228.137 170.319 228.623C168.861 229.11 167.316 228.439 166.873 227.12Z" fill="#C38686"/>
<path d="M190.257 202.642C191.607 198.382 196.943 190.186 209.634 195.506C222.325 200.825 222.325 209.302 219.711 212.848C217.097 216.395 210.519 217.271 201.015 213.767C191.51 210.264 188.918 206.902 190.268 202.642H190.257Z" fill="url(#paint34_linear_214815_24)"/>
<path d="M213.014 194.792C212.539 193.916 211.772 192.846 212.723 190.77C213.673 188.694 216.244 187.721 219.592 190.77C222.951 193.819 222.832 197.473 222.476 198.911C222.12 200.339 221.223 201.517 219.02 200.274C216.816 199.03 213.49 195.679 213.004 194.803L213.014 194.792Z" fill="#B37B7B"/>
<path d="M45.6012 206.037C41.7777 206.037 38.8615 204.977 38.1702 203.009C37.6194 201.431 38.6022 199.463 40.9352 197.484C43.1386 195.614 46.3249 193.895 49.9107 192.64C53.4966 191.386 57.0609 190.759 59.9447 190.835C63.0014 190.932 64.9995 191.851 65.5504 193.43C65.9176 194.478 65.7772 195.7 65.1399 196.965C63.5954 200.058 59.4695 202.869 53.8098 204.664C50.926 205.583 48.0746 206.026 45.6012 206.026V206.037ZM59.3939 191.916C56.7261 191.916 53.5182 192.532 50.2672 193.668C46.8109 194.879 43.7435 196.522 41.6373 198.306C39.6931 199.96 38.7967 201.539 39.1855 202.652C40.0064 205.01 46.2925 205.939 53.475 203.647C61.122 201.204 63.4982 197.83 64.1679 196.49C64.6647 195.495 64.7835 194.554 64.5243 193.797C64.1355 192.684 62.4505 192.003 59.9123 191.927C59.7395 191.927 59.5775 191.927 59.4047 191.927L59.3939 191.916Z" fill="#81DEF6"/>
<path d="M44.3159 205.615C44.1323 205.615 43.9487 205.615 43.7759 205.615C40.7192 205.518 38.7211 204.599 38.1702 203.02C37.6194 201.442 38.6022 199.474 40.9352 197.495C43.1386 195.625 46.3249 193.905 49.9107 192.651C53.4966 191.397 57.0609 190.77 59.9447 190.846C63.0014 190.943 64.9995 191.862 65.5504 193.441C66.1012 195.019 65.1183 196.987 62.7854 198.966C60.582 200.836 57.3957 202.555 53.8207 203.809C50.4616 204.988 47.1241 205.615 44.3375 205.615H44.3159ZM59.3939 191.916C56.7261 191.916 53.5182 192.532 50.2672 193.668C46.8109 194.879 43.7435 196.522 41.6373 198.306C39.6931 199.96 38.7967 201.539 39.1855 202.652C39.5743 203.766 41.2593 204.447 43.7975 204.523C46.5517 204.61 49.9755 203.993 53.4426 202.782C56.8989 201.571 59.9663 199.928 62.0725 198.133C64.0167 196.479 64.9131 194.9 64.5243 193.787C64.1355 192.673 62.4505 191.992 59.9123 191.916C59.7395 191.916 59.5775 191.916 59.4047 191.916H59.3939Z" fill="#916B6B"/>
<path d="M45.1476 199.593C44.6939 197.992 47.3185 195.83 51.034 194.77C54.7387 193.7 58.1194 194.133 58.573 195.733C59.0266 197.333 56.402 199.495 52.6865 200.555C48.9819 201.625 45.6012 201.193 45.1476 199.593Z" fill="#B2EFFF"/>
<path d="M48.0098 197.949C47.783 197.149 49.1007 196.068 50.9584 195.538C52.8161 195.008 54.5011 195.225 54.7387 196.025C54.9655 196.825 53.6478 197.906 51.7901 198.447C49.9323 198.976 48.2474 198.76 48.0098 197.96V197.949Z" fill="#E4F2F6"/>
<path d="M234.454 202.285C233.493 202.285 232.629 202.069 231.927 201.593C230.134 200.393 229.345 197.722 229.767 194.284C230.199 190.835 231.765 186.932 234.184 183.32C236.549 179.785 239.93 176.671 243.451 174.79C246.918 172.941 250.04 172.541 251.822 173.741C253.615 174.941 254.252 177.557 253.626 181.104C253.021 184.488 251.336 188.38 248.862 192.078C244.834 198.101 238.634 202.296 234.443 202.296L234.454 202.285ZM235.091 183.915C232.769 187.397 231.257 191.127 230.857 194.414C230.479 197.43 231.095 199.722 232.542 200.685C235.448 202.631 242.987 198.944 247.988 191.462C250.375 187.894 252.006 184.142 252.578 180.898C253.118 177.839 252.632 175.557 251.239 174.627C249.813 173.676 247.026 174.098 243.97 175.73C240.6 177.536 237.36 180.52 235.091 183.915Z" fill="#975F5F"/>
<path d="M236.517 184.921C239.044 181.05 242.814 179.028 244.931 180.412C247.048 181.796 246.713 186.056 244.186 189.937C241.658 193.808 237.889 195.83 235.772 194.446C233.655 193.062 233.99 188.791 236.517 184.921Z" fill="#81DEF6"/>
<path d="M237.327 195.43C236.647 195.43 236.02 195.257 235.469 194.9C233.061 193.332 233.32 188.813 236.053 184.629C238.785 180.444 242.814 178.39 245.212 179.969C246.411 180.747 246.983 182.282 246.821 184.293C246.67 186.186 245.892 188.294 244.618 190.24C242.512 193.473 239.628 195.43 237.316 195.43H237.327ZM236.96 185.212C234.638 188.77 234.227 192.792 236.063 193.992C237.9 195.192 241.41 193.203 243.732 189.645C244.909 187.851 245.622 185.915 245.763 184.207C245.892 182.618 245.493 181.428 244.639 180.877C242.803 179.677 239.293 181.666 236.971 185.223L236.96 185.212Z" fill="#916B6B"/>
<path d="M237.478 185.58C238.947 183.32 241.14 182.153 242.371 182.953C243.602 183.753 243.408 186.24 241.939 188.499C240.47 190.759 238.278 191.927 237.046 191.127C235.815 190.316 236.009 187.84 237.478 185.58Z" fill="#E4F2F6"/>
<path d="M84.8731 81.3616C85.0783 80.4642 87.1197 81.4697 89.8847 82.1076C92.6497 82.7455 95.1123 82.778 94.8963 83.6754C94.6911 84.5728 91.7424 85.5351 88.9666 84.8971C86.1908 84.2592 84.6571 82.259 84.8623 81.3616H84.8731Z" fill="#E5F3F7"/>
<path d="M70.9292 242.841C71.7069 240.96 73.165 239.781 74.2019 240.214C75.2387 240.636 75.4439 242.506 74.6663 244.387C73.8886 246.269 70.9724 247.999 69.9355 247.577C68.8986 247.145 70.1407 244.723 70.9184 242.841H70.9292Z" fill="white"/>
<path d="M208.564 89.1896C207.992 88.2381 209.99 85.9784 213.025 84.1403C216.06 82.3022 218.987 81.5778 219.56 82.5293C220.132 83.4808 218.134 85.7405 215.099 87.5786C212.064 89.4166 209.137 90.141 208.564 89.1896Z" fill="white"/>
<path d="M206.145 90.0978C206.793 89.5788 207.592 89.514 207.949 89.9464C208.305 90.3789 208.068 91.1574 207.42 91.6764C206.772 92.1954 205.972 92.2602 205.616 91.8278C205.27 91.3953 205.497 90.6168 206.145 90.0978Z" fill="white"/>
<path d="M225.597 74.7121C226.775 72.8524 226.98 75.1338 230.663 76.3663C234.346 77.5989 236.722 77.3827 236.236 78.226C235.75 79.0694 230.922 78.5288 229.129 77.999C227.174 77.4259 224.55 76.3663 225.597 74.7121Z" fill="white"/>
<path d="M97.9637 206.166C98.2014 201.15 108.343 199.355 120.592 199.917C132.84 200.479 142.506 204.274 142.28 209.291C142.042 214.308 133.164 218.741 120.916 218.168C108.667 217.606 97.7369 211.183 97.9637 206.166Z" fill="url(#paint35_linear_214815_24)"/>
<path d="M97.9637 206.166C98.1366 202.458 103.71 200.512 111.54 199.971C114.316 199.776 112.016 216.946 108.343 215.497C102.1 213.043 97.8125 209.324 97.9637 206.166Z" fill="#F3E1DD"/>
<path d="M148.76 220.276C148.76 216.135 152.119 212.773 156.256 212.773C160.393 212.773 163.752 216.135 163.752 220.276C163.752 224.417 160.393 227.78 156.256 227.78C152.119 227.78 148.76 224.417 148.76 220.276Z" fill="url(#paint36_linear_214815_24)"/>
<path d="M151.622 220.125C151.622 217.562 153.696 215.497 156.245 215.497C158.794 215.497 160.868 217.573 160.868 220.125C160.868 222.677 158.794 224.753 156.245 224.753C153.696 224.753 151.622 222.677 151.622 220.125Z" fill="url(#paint37_linear_214815_24)"/>
<path d="M117.589 205.183C118.572 203.604 120.548 202.447 123.583 203.074C126.618 203.701 128.951 205.842 128.681 207.886C128.411 209.929 126.597 211.508 123.713 211.864C120.829 212.221 117.546 210.037 117.135 209.313C116.725 208.578 116.606 206.772 117.589 205.183Z" fill="#D59E9C"/>
<path d="M128.476 209.724C129.329 208.134 131.036 206.988 133.661 207.615C136.285 208.232 138.294 210.383 138.067 212.427C137.84 214.47 136.264 216.049 133.769 216.406C131.274 216.762 128.444 214.578 128.087 213.854C127.731 213.119 127.634 211.313 128.476 209.724Z" fill="url(#paint38_linear_214815_24)"/>
<path d="M138.013 214.146C138.856 212.567 140.573 211.421 143.198 212.037C145.822 212.654 147.831 214.816 147.604 216.849C147.378 218.892 145.801 220.471 143.306 220.828C140.811 221.185 137.981 219 137.624 218.276C137.268 217.541 137.171 215.735 138.013 214.157V214.146Z" fill="url(#paint39_linear_214815_24)"/>
<path d="M159.755 211.864C158.87 210.318 158.513 207.55 160.403 205.745C162.304 203.939 164.281 203.539 166.366 204.728C168.45 205.918 169.163 207.68 168.148 209.907C167.132 212.135 164.551 213.886 163.752 213.778C162.952 213.67 160.641 213.421 159.755 211.875V211.864Z" fill="url(#paint40_linear_214815_24)"/>
<path d="M165.318 202.717C164.486 201.323 164.108 198.847 165.804 197.268C167.5 195.689 169.293 195.365 171.193 196.457C173.105 197.549 173.786 199.139 172.9 201.106C172.014 203.074 169.703 204.599 168.969 204.491C168.234 204.382 166.139 204.123 165.307 202.717H165.318Z" fill="url(#paint41_linear_214815_24)"/>
<path d="M170.092 194.533C169.379 193.311 169.077 191.138 170.567 189.732C172.058 188.326 173.624 188.024 175.276 188.975C176.929 189.916 177.512 191.311 176.724 193.051C175.935 194.792 173.905 196.154 173.267 196.068C172.63 195.981 170.794 195.765 170.092 194.543V194.533Z" fill="url(#paint42_linear_214815_24)"/>
<path d="M165.793 173.168L177.069 172.4L173.278 186.769C173.278 186.769 171.658 186.899 168.591 183.623C165.523 180.347 165.782 173.168 165.782 173.168H165.793Z" fill="#633535"/>
<path d="M172.652 141.056C172.652 141.056 174.65 138.872 178.614 138.028C182.578 137.185 186.077 137.142 187.924 138.028C189.771 138.915 190.041 144.764 190.041 144.764L171.842 150.7C171.842 150.7 170.254 146.278 170.254 145.045C170.254 143.813 172.652 141.056 172.652 141.056Z" fill="#397ECD"/>
<path d="M170.265 131.022C170.265 131.022 171.377 129.519 173.289 128.795C175.211 128.07 176.54 127.94 178.063 128.394C178.733 128.6 180.158 129.93 181.195 131.908C182.545 134.46 183.463 137.779 183.463 137.779L173.289 141.358C173.289 141.358 172.338 137.985 171.042 135.985C169.746 133.984 169.509 134.125 169.509 133.022C169.509 131.919 170.265 131.033 170.265 131.033V131.022Z" fill="#397ECD"/>
<path d="M170.265 131.022C170.265 131.022 171.377 129.519 173.289 128.795C175.211 128.07 176.54 127.94 178.063 128.394C178.733 128.6 180.158 129.93 181.195 131.908C182.545 134.46 183.463 137.779 183.463 137.779L174.79 140.201C174.79 140.201 174.423 137.812 173.289 135.52C172.155 133.228 170.265 131.033 170.265 131.033V131.022Z" fill="url(#paint43_linear_214815_24)"/>
<path d="M172.652 141.056C172.652 141.056 174.65 138.872 178.614 138.028C182.578 137.185 186.077 137.142 187.924 138.028C189.771 138.915 190.041 144.764 190.041 144.764L175.633 149.5L172.641 141.056H172.652Z" fill="url(#paint44_linear_214815_24)"/>
<path d="M158.762 168.14C156.72 162.766 164.54 154.895 164.54 154.895C164.54 154.895 169.303 149.046 180.093 145.629C190.883 142.212 196.511 141.402 199.816 143.964C203.121 146.527 202.494 167.189 194.761 175.449C187.038 183.71 178.387 179.017 173.926 177.287C169.465 175.557 160.792 173.525 158.762 168.14Z" fill="url(#paint45_linear_214815_24)"/>
<path d="M158.762 168.14C156.72 162.766 164.54 154.895 164.54 154.895C164.54 154.895 169.53 161.88 169.53 168.81C169.53 175.741 160.792 173.514 158.762 168.14Z" fill="url(#paint46_linear_214815_24)"/>
<path d="M164.54 154.895C164.54 154.895 169.303 149.046 180.093 145.629C190.883 142.212 196.511 141.402 199.816 143.964C203.121 146.527 202.494 167.189 194.761 175.449C191.542 178.887 190.354 177.19 187.19 177.287C184.533 177.374 175.924 170.335 170.265 163.88C166.463 159.534 164.551 154.906 164.551 154.906L164.54 154.895Z" fill="url(#paint47_linear_214815_24)"/>
<path d="M191.326 159.188L201.695 153.187L192.601 159.944L184.781 172.389L191.316 159.188H191.326Z" fill="#94131F"/>
<path d="M177.458 168.81C179.629 165.459 182.372 164.659 187.19 165.394C192.007 166.14 198.098 168.724 198.098 170.94C198.098 173.157 195.668 178.206 191.704 182.639C187.74 187.072 184.468 188.413 180.158 188.413C175.849 188.413 172.144 187.299 171.55 185.148C170.956 183.007 175.287 172.151 177.458 168.8V168.81Z" fill="url(#paint48_linear_214815_24)"/>
<path d="M159.885 164.994C160.079 161.847 162.229 160.031 163.817 160.031C165.404 160.031 164.994 162.388 164.54 164.994C164.27 166.551 163.158 168.81 161.57 168.81C159.982 168.81 159.788 166.572 159.885 164.994Z" fill="#F8B5C3"/>
<path d="M161.883 169.773C161.883 169.243 162.348 168.81 162.92 168.81C163.492 168.81 163.968 169.243 163.968 169.773C163.968 170.302 163.503 170.735 162.92 170.735C162.337 170.735 161.883 170.302 161.883 169.773Z" fill="#F8B5C3"/>
<path d="M194.621 153.014C194.621 152.052 195.398 151.273 196.36 151.273C197.321 151.273 198.098 152.052 198.098 153.014C198.098 153.976 197.321 154.755 196.36 154.755C195.398 154.755 194.621 153.976 194.621 153.014Z" fill="#94131F"/>
<path d="M192.201 154.657C192.201 154.073 192.676 153.608 193.249 153.608C193.821 153.608 194.297 154.084 194.297 154.657C194.297 155.23 193.821 155.706 193.249 155.706C192.676 155.706 192.201 155.23 192.201 154.657Z" fill="#94131F"/>
<path d="M175.276 141.942C175.276 140.947 176.075 140.147 177.069 140.147C178.063 140.147 178.862 140.947 178.862 141.942C178.862 142.937 178.063 143.737 177.069 143.737C176.075 143.737 175.276 142.937 175.276 141.942Z" fill="#397ECD"/>
<path d="M174.704 137.023C174.704 136.536 175.103 136.136 175.589 136.136C176.075 136.136 176.475 136.536 176.475 137.023C176.475 137.509 176.075 137.909 175.589 137.909C175.103 137.909 174.704 137.509 174.704 137.023Z" fill="#397ECD"/>
<path d="M104.498 207.194C104.498 205.831 105.6 204.728 106.961 204.728C108.322 204.728 109.423 205.831 109.423 207.194C109.423 208.556 108.322 209.659 106.961 209.659C105.6 209.659 104.498 208.556 104.498 207.194Z" fill="#D59E9C"/>
<path d="M103.904 206.837C103.904 205.474 105.006 204.372 106.367 204.372C107.728 204.372 108.829 205.474 108.829 206.837C108.829 208.199 107.728 209.302 106.367 209.302C105.006 209.302 103.904 208.199 103.904 206.837Z" fill="url(#paint49_linear_214815_24)"/>
<path d="M105.038 205.842C105.038 205.312 105.47 204.88 106 204.88C106.529 204.88 106.961 205.312 106.961 205.842C106.961 206.372 106.529 206.804 106 206.804C105.47 206.804 105.038 206.372 105.038 205.842Z" fill="#EC94B7"/>
<path d="M106.55 179.104C108.106 177.633 110.655 177.244 114.997 176.876C119.328 176.509 123.097 176.876 123.972 179.104C124.847 181.331 122.309 185.883 119.987 186.856C117.665 187.829 115.882 187.742 112.167 187.515C108.451 187.299 106.658 186.759 105.913 185.872C105.168 184.985 105.006 180.574 106.561 179.104H106.55Z" fill="#392727"/>
<path d="M230.49 168.908C231.117 167.643 233.277 168.129 235.815 168.129C238.353 168.129 239.498 167.945 239.876 168.908C240.254 169.87 239.714 171.568 238.526 172.4C237.338 173.233 236.992 173.427 235.426 173.589C233.86 173.752 229.875 170.184 230.501 168.908H230.49Z" fill="#392727"/>
</g>
<defs>
<linearGradient id="paint0_linear_214815_24" x1="191.672" y1="77.2638" x2="263.865" y2="149.986" gradientUnits="userSpaceOnUse">
<stop stop-color="#E8CACA"/>
<stop offset="1" stop-color="#CD9999"/>
</linearGradient>
<linearGradient id="paint1_linear_214815_24" x1="127.418" y1="143.305" x2="69.1873" y2="97.8985" gradientUnits="userSpaceOnUse">
<stop stop-color="#CE9B9B"/>
<stop offset="1" stop-color="#E6C7C6"/>
</linearGradient>
<linearGradient id="paint2_linear_214815_24" x1="92.8549" y1="126.892" x2="73.9747" y2="85.4419" gradientUnits="userSpaceOnUse">
<stop stop-color="#EFD5D5"/>
<stop offset="1" stop-color="#F8F1E8"/>
</linearGradient>
<linearGradient id="paint3_linear_214815_24" x1="122.914" y1="170.486" x2="124.71" y2="129.789" gradientUnits="userSpaceOnUse">
<stop stop-color="#C38686"/>
<stop offset="1" stop-color="#D2A3A2"/>
</linearGradient>
<linearGradient id="paint4_linear_214815_24" x1="88.8262" y1="108.176" x2="65.7103" y2="103.244" gradientUnits="userSpaceOnUse">
<stop stop-color="#D9AEAE"/>
<stop offset="1" stop-color="#F1DCDA"/>
</linearGradient>
<linearGradient id="paint5_linear_214815_24" x1="258.929" y1="153.046" x2="239.025" y2="142.792" gradientUnits="userSpaceOnUse">
<stop stop-color="#A16767"/>
<stop offset="1" stop-color="#CF9D9E"/>
</linearGradient>
<linearGradient id="paint6_linear_214815_24" x1="216.762" y1="102.932" x2="236.115" y2="134.767" gradientUnits="userSpaceOnUse">
<stop stop-color="#3D86D9"/>
<stop offset="1" stop-color="#18477D"/>
</linearGradient>
<linearGradient id="paint7_linear_214815_24" x1="138.964" y1="134.73" x2="100.203" y2="105.544" gradientUnits="userSpaceOnUse">
<stop stop-color="#3B82D4"/>
<stop offset="1" stop-color="#1B4D86"/>
</linearGradient>
<linearGradient id="paint8_linear_214815_24" x1="81.2656" y1="115.106" x2="73.2354" y2="109.773" gradientUnits="userSpaceOnUse">
<stop stop-color="#965959"/>
<stop offset="1" stop-color="#392727"/>
</linearGradient>
<linearGradient id="paint9_linear_214815_24" x1="64.0598" y1="99.6125" x2="78.1135" y2="111.718" gradientUnits="userSpaceOnUse">
<stop stop-color="#C38686"/>
<stop offset="1"/>
</linearGradient>
<linearGradient id="paint10_linear_214815_24" x1="90.0359" y1="71.8252" x2="109.225" y2="80.6759" gradientUnits="userSpaceOnUse">
<stop stop-color="#DC4A6B"/>
<stop offset="1" stop-color="#C32A33"/>
</linearGradient>
<linearGradient id="paint11_linear_214815_24" x1="114.359" y1="75.6527" x2="82.0758" y2="89.619" gradientUnits="userSpaceOnUse">
<stop stop-color="#DCB4B4"/>
<stop offset="1" stop-color="#81DEF6"/>
</linearGradient>
<linearGradient id="paint12_linear_214815_24" x1="276.448" y1="109.203" x2="271.413" y2="111.524" gradientUnits="userSpaceOnUse">
<stop stop-color="#624949"/>
<stop offset="1" stop-color="#311F1F"/>
</linearGradient>
<linearGradient id="paint13_linear_214815_24" x1="232.694" y1="68.7546" x2="252.098" y2="76.5469" gradientUnits="userSpaceOnUse">
<stop stop-color="#DC4A6B"/>
<stop offset="1" stop-color="#AB1720"/>
</linearGradient>
<linearGradient id="paint14_linear_214815_24" x1="242.933" y1="80.2696" x2="232.574" y2="69.6196" gradientUnits="userSpaceOnUse">
<stop stop-color="#CD9999"/>
<stop offset="1" stop-color="#EFD5D5"/>
</linearGradient>
<linearGradient id="paint15_linear_214815_24" x1="92.2508" y1="68.1226" x2="98.9826" y2="70.2719" gradientUnits="userSpaceOnUse">
<stop stop-color="#EDB0B0"/>
<stop offset="1" stop-color="#EC7390"/>
</linearGradient>
<linearGradient id="paint16_linear_214815_24" x1="290.483" y1="56.9763" x2="296.338" y2="58.5631" gradientUnits="userSpaceOnUse">
<stop stop-color="#EDB0B0"/>
<stop offset="1" stop-color="#EC7390"/>
</linearGradient>
<linearGradient id="paint17_linear_214815_24" x1="88.9882" y1="73.0686" x2="90.5984" y2="73.9754" gradientUnits="userSpaceOnUse">
<stop stop-color="#EDB0B0"/>
<stop offset="1" stop-color="#EC7390"/>
</linearGradient>
<linearGradient id="paint18_linear_214815_24" x1="270.965" y1="162.822" x2="268.796" y2="158.168" gradientUnits="userSpaceOnUse">
<stop stop-color="#C45884"/>
<stop offset="1" stop-color="#DDB28C"/>
</linearGradient>
<linearGradient id="paint19_linear_214815_24" x1="248.956" y1="145.374" x2="242.575" y2="141.337" gradientUnits="userSpaceOnUse">
<stop stop-color="#C45884"/>
<stop offset="1" stop-color="#DDB28C"/>
</linearGradient>
<linearGradient id="paint20_linear_214815_24" x1="71.1832" y1="148.626" x2="66.6637" y2="144.785" gradientUnits="userSpaceOnUse">
<stop stop-color="#C45884"/>
<stop offset="1" stop-color="#DDB28C"/>
</linearGradient>
<linearGradient id="paint21_linear_214815_24" x1="68.3262" y1="186.64" x2="141.631" y2="223.88" gradientUnits="userSpaceOnUse">
<stop stop-color="#E1BEBD"/>
<stop offset="1" stop-color="#C38686"/>
</linearGradient>
<linearGradient id="paint22_linear_214815_24" x1="68.931" y1="188.791" x2="108.058" y2="226.215" gradientUnits="userSpaceOnUse">
<stop stop-color="#F6ECE4"/>
<stop offset="1" stop-color="#EFD5D5"/>
</linearGradient>
<linearGradient id="paint23_linear_214815_24" x1="63.131" y1="179.914" x2="141.292" y2="195.809" gradientUnits="userSpaceOnUse">
<stop stop-color="#A16767"/>
<stop offset="1" stop-color="#633535"/>
</linearGradient>
<linearGradient id="paint24_linear_214815_24" x1="201.485" y1="182.966" x2="296.28" y2="215.177" gradientUnits="userSpaceOnUse">
<stop stop-color="#D9B1B0"/>
<stop offset="1" stop-color="#A56363"/>
</linearGradient>
<linearGradient id="paint25_linear_214815_24" x1="52.8486" y1="193.473" x2="60.098" y2="210.648" gradientUnits="userSpaceOnUse">
<stop stop-color="#F0D5D4"/>
<stop offset="1" stop-color="#CF9E9E"/>
</linearGradient>
<linearGradient id="paint26_linear_214815_24" x1="39.3151" y1="185.872" x2="53.1867" y2="199.383" gradientUnits="userSpaceOnUse">
<stop stop-color="#F6ECE5"/>
<stop offset="1" stop-color="#EFD5D5"/>
</linearGradient>
<linearGradient id="paint27_linear_214815_24" x1="12.7234" y1="212.059" x2="8.42751" y2="200.125" gradientUnits="userSpaceOnUse">
<stop stop-color="#EFD5D5"/>
<stop offset="1" stop-color="#F6ECE5"/>
</linearGradient>
<linearGradient id="paint28_linear_214815_24" x1="140.562" y1="215.032" x2="98.1306" y2="226.385" gradientUnits="userSpaceOnUse">
<stop stop-color="#C38686"/>
<stop offset="1" stop-color="#9F6C6C"/>
</linearGradient>
<linearGradient id="paint29_linear_214815_24" x1="235.059" y1="216.319" x2="246.195" y2="217.02" gradientUnits="userSpaceOnUse">
<stop stop-color="#A16767"/>
<stop offset="1" stop-color="#C49392"/>
</linearGradient>
<linearGradient id="paint30_linear_214815_24" x1="75.7356" y1="247.199" x2="67.6659" y2="234.178" gradientUnits="userSpaceOnUse">
<stop stop-color="#EFD5D5"/>
<stop offset="1" stop-color="#F6ECE5"/>
</linearGradient>
<linearGradient id="paint31_linear_214815_24" x1="232.143" y1="181.893" x2="253.503" y2="199.592" gradientUnits="userSpaceOnUse">
<stop stop-color="#E1BEBD"/>
<stop offset="1" stop-color="#A66868"/>
</linearGradient>
<linearGradient id="paint32_linear_214815_24" x1="232.143" y1="181.893" x2="253.503" y2="199.592" gradientUnits="userSpaceOnUse">
<stop stop-color="#E1BEBD"/>
<stop offset="1" stop-color="#A66868"/>
</linearGradient>
<linearGradient id="paint33_linear_214815_24" x1="251.595" y1="237.641" x2="284.248" y2="253.389" gradientUnits="userSpaceOnUse">
<stop stop-color="#C2908E"/>
<stop offset="1" stop-color="#A86A6A"/>
</linearGradient>
<linearGradient id="paint34_linear_214815_24" x1="205.13" y1="205.204" x2="217.675" y2="221.01" gradientUnits="userSpaceOnUse">
<stop stop-color="#B78080"/>
<stop offset="1" stop-color="#694444"/>
</linearGradient>
<linearGradient id="paint35_linear_214815_24" x1="119.025" y1="222.341" x2="120.519" y2="202.48" gradientUnits="userSpaceOnUse">
<stop stop-color="#794E4F"/>
<stop offset="1" stop-color="#392727"/>
</linearGradient>
<linearGradient id="paint36_linear_214815_24" x1="154.614" y1="217.746" x2="162.694" y2="230.162" gradientUnits="userSpaceOnUse">
<stop stop-color="#F3E1DD"/>
<stop offset="1" stop-color="#C06E6E"/>
</linearGradient>
<linearGradient id="paint37_linear_214815_24" x1="153.901" y1="217.876" x2="159.296" y2="223.017" gradientUnits="userSpaceOnUse">
<stop stop-color="#C38686"/>
<stop offset="1" stop-color="#8A5555"/>
</linearGradient>
<linearGradient id="paint38_linear_214815_24" x1="132.958" y1="211.562" x2="132.818" y2="220.06" gradientUnits="userSpaceOnUse">
<stop stop-color="#F3E1DD"/>
<stop offset="1" stop-color="#C06E6E"/>
</linearGradient>
<linearGradient id="paint39_linear_214815_24" x1="142.258" y1="214.2" x2="143.081" y2="223.412" gradientUnits="userSpaceOnUse">
<stop stop-color="#F3E1DD"/>
<stop offset="1" stop-color="#C06E6E"/>
</linearGradient>
<linearGradient id="paint40_linear_214815_24" x1="161.959" y1="207.161" x2="168.37" y2="213.371" gradientUnits="userSpaceOnUse">
<stop stop-color="#F3E1DD"/>
<stop offset="1" stop-color="#C06E6E"/>
</linearGradient>
<linearGradient id="paint41_linear_214815_24" x1="167.305" y1="199.149" x2="173.433" y2="202.993" gradientUnits="userSpaceOnUse">
<stop stop-color="#F3E1DD"/>
<stop offset="1" stop-color="#C06E6E"/>
</linearGradient>
<linearGradient id="paint42_linear_214815_24" x1="172.112" y1="191.484" x2="178.132" y2="195.554" gradientUnits="userSpaceOnUse">
<stop stop-color="#F3E1DD"/>
<stop offset="1" stop-color="#C06E6E"/>
</linearGradient>
<linearGradient id="paint43_linear_214815_24" x1="172.943" y1="132.752" x2="183.553" y2="137.404" gradientUnits="userSpaceOnUse">
<stop stop-color="#1B4D86"/>
<stop offset="1" stop-color="#07294E"/>
</linearGradient>
<linearGradient id="paint44_linear_214815_24" x1="177.436" y1="141.261" x2="189.161" y2="147.965" gradientUnits="userSpaceOnUse">
<stop stop-color="#1B4D86"/>
<stop offset="1" stop-color="#07294E"/>
</linearGradient>
<linearGradient id="paint45_linear_214815_24" x1="166.484" y1="151.381" x2="185.242" y2="160.135" gradientUnits="userSpaceOnUse">
<stop stop-color="#F26988"/>
<stop offset="1" stop-color="#E13B4B"/>
</linearGradient>
<linearGradient id="paint46_linear_214815_24" x1="158.416" y1="164.021" x2="201.706" y2="164.021" gradientUnits="userSpaceOnUse">
<stop stop-color="#E7728B"/>
<stop offset="1" stop-color="#E8C6A3"/>
</linearGradient>
<linearGradient id="paint47_linear_214815_24" x1="187.146" y1="157.468" x2="170.516" y2="148.833" gradientUnits="userSpaceOnUse">
<stop stop-color="#B4212F"/>
<stop offset="1" stop-color="#DC4A6B"/>
</linearGradient>
<linearGradient id="paint48_linear_214815_24" x1="182.718" y1="175.849" x2="191.508" y2="184.533" gradientUnits="userSpaceOnUse">
<stop stop-color="#F3E1DD"/>
<stop offset="1" stop-color="#C06E6E"/>
</linearGradient>
<linearGradient id="paint49_linear_214815_24" x1="103.227" y1="209.074" x2="106.589" y2="211.61" gradientUnits="userSpaceOnUse">
<stop stop-color="#BE4576"/>
<stop offset="1" stop-color="#B63131"/>
</linearGradient>
<clipPath id="clip0_214815_24">
<rect width="299" height="301" fill="white"/>
</clipPath>
</defs>
</svg>
