<svg width="248" height="72" viewBox="0 0 248 72" fill="none" xmlns="http://www.w3.org/2000/svg">
<g clip-path="url(#clip0_214801_113)">
<path d="M80.7754 21.6447V71.9184H68.2236V21.6447C68.2236 16.571 64.0672 12.4555 58.9432 12.4555C53.8191 12.4555 49.6627 16.571 49.6627 21.6447V71.9184H37.1109V21.6447C37.1109 16.571 32.9545 12.4555 27.8305 12.4555C22.7064 12.4555 18.55 16.571 18.55 21.6447V71.9184H5.99823V12.5916H0V0.157886H6.27862C9.67083 0.157886 12.9091 1.54606 15.2292 4.00122C23.9599 -2.12852 35.8959 -1.07242 43.3896 6.48905C47.4855 2.35175 53.0934 0.0217901 58.9432 0.027234C70.9946 0.0435654 80.7644 9.71179 80.7754 21.6447Z" fill="url(#paint0_linear_214801_113)"/>
<path d="M137.261 23.9746V71.9184H124.709V46.4141H101.607V72H89.0552V23.9746C89.0717 10.8006 99.8532 0.125218 113.158 0.108887C126.463 0.125218 137.244 10.8006 137.261 23.9746ZM124.704 33.9858V23.9746C124.704 17.6598 119.536 12.5371 113.153 12.5371C106.77 12.5371 101.601 17.6543 101.601 23.9746V33.9858H124.704Z" fill="#81DEF6"/>
<path d="M185.241 35.9129C189.211 39.8542 191.443 45.1946 191.437 50.7582V71.8857H178.886V50.7582C178.88 46.1092 175.169 42.2985 170.474 42.1243H161.435V71.8802H148.884V12.4282H143.435V0H170.166C181.91 0.0108876 191.432 9.43959 191.443 21.0676C191.443 26.6366 189.216 31.977 185.241 35.9129ZM170.166 29.6961C170.27 29.6961 170.375 29.6961 170.479 29.7015C175.235 29.5327 178.979 25.6241 178.891 20.9097C178.803 16.2008 174.922 12.4282 170.166 12.4282H161.441V29.6961H170.166Z" fill="url(#paint1_linear_214801_113)"/>
<path d="M248 23.9746V71.9184H235.448V46.4141H212.346V72H199.794V23.9746C199.811 10.8006 210.592 0.125218 223.897 0.108887C237.202 0.125218 247.984 10.8006 248 23.9746ZM235.443 33.9858V23.9746C235.443 17.6598 230.275 12.5371 223.892 12.5371C217.509 12.5371 212.341 17.6543 212.341 23.9746V33.9858H235.443Z" fill="#ED8EFC"/>
</g>
<defs>
<linearGradient id="paint0_linear_214801_113" x1="80.7754" y1="35.9728" x2="0" y2="35.9728" gradientUnits="userSpaceOnUse">
<stop stop-color="#DD568D"/>
<stop offset="1" stop-color="#D93939"/>
</linearGradient>
<linearGradient id="paint1_linear_214801_113" x1="143.435" y1="35.9456" x2="191.443" y2="35.9456" gradientUnits="userSpaceOnUse">
<stop stop-color="#DD568D"/>
<stop offset="1" stop-color="#D93939"/>
</linearGradient>
<clipPath id="clip0_214801_113">
<rect width="248" height="72" fill="white"/>
</clipPath>
</defs>
</svg>
