<svg width="199" height="62" viewBox="0 0 199 62" fill="none" xmlns="http://www.w3.org/2000/svg">
<g clip-path="url(#clip0_214811_3)">
<path d="M12.1317 22.9219L15.7091 26.4993C12.1143 30.0941 6.28942 30.0941 2.69463 26.4993C-0.900163 22.9045 -0.900163 17.0796 2.69463 13.4849C6.28942 9.89006 12.1143 9.89006 15.7091 13.4849L12.1317 17.0622C10.8076 15.7381 8.75177 15.4652 7.12569 16.406C5.49961 17.3468 4.7098 19.2574 5.19763 21.0693C5.68545 22.8813 7.32314 24.1415 9.19894 24.1415C10.2965 24.1415 11.3535 23.7059 12.1317 22.9277V22.9219Z" fill="url(#paint0_linear_214811_3)"/>
<path d="M35.1697 20.0414C35.1697 23.764 32.9281 27.1207 29.4901 28.5435C26.0521 29.9663 22.0914 29.1823 19.4607 26.5457C16.8299 23.915 16.0401 19.9543 17.4687 16.5163C18.8915 13.0783 22.2482 10.8367 25.9708 10.8367C31.0523 10.8425 35.1639 14.9599 35.1697 20.0356V20.0414ZM25.9708 24.1821C28.2589 24.1821 30.1115 22.3237 30.1173 20.0356C30.1173 18.3573 29.1068 16.8473 27.5562 16.2085C26.0056 15.5697 24.2227 15.924 23.038 17.1087C21.8533 18.2934 21.4991 20.0763 22.1379 21.6269C22.7767 23.1774 24.2924 24.1879 25.965 24.1879L25.9708 24.1821Z" fill="url(#paint1_linear_214811_3)"/>
<path d="M65.3741 18.9205V29.2519H60.3159V18.9205C60.3159 17.248 58.9627 15.8949 57.2902 15.8949C55.6177 15.8949 54.2645 17.248 54.2645 18.9205V29.2519H49.2063V18.9205C49.2063 17.248 47.8531 15.8949 46.1806 15.8949C44.5081 15.8949 43.1549 17.248 43.1549 18.9205V29.2519H38.0967V10.8482H43.1549V11.4232C46.0877 10.2385 49.4444 10.8773 51.7383 13.055C53.2366 11.6322 55.2286 10.8366 57.296 10.8366C61.7619 10.8366 65.3741 14.4604 65.3799 18.9205H65.3741Z" fill="url(#paint2_linear_214811_3)"/>
<path d="M84.8696 10.8367V29.252H79.8113V28.6654C77.3199 29.6701 74.4917 29.3739 72.2617 27.8698C70.0316 26.3657 68.6959 23.8569 68.6959 21.1681V10.8367H73.7542V21.1681C73.7542 22.8406 75.1073 24.1937 76.7799 24.1937C78.4524 24.1937 79.8055 22.8406 79.8055 21.1681V10.8367H84.8638H84.8696Z" fill="url(#paint3_linear_214811_3)"/>
<path d="M104.394 18.9206V29.252H99.3359V18.9206C99.3359 17.2481 97.9828 15.8949 96.3102 15.8949C94.6377 15.8949 93.2846 17.2481 93.2846 18.9206V29.252H88.2263V10.8367H93.2846V11.4232C94.2486 11.0341 95.2765 10.8309 96.3102 10.8367C100.77 10.8367 104.388 14.4605 104.394 18.9206Z" fill="url(#paint4_linear_214811_3)"/>
<path d="M107.751 5.41832V0.0812988H112.809V5.41832H107.751ZM107.751 29.252V10.8715H112.809V29.252H107.751Z" fill="url(#paint5_linear_214811_3)"/>
<path d="M134.146 0V29.252H129.087V28.2647C125.214 30.216 120.504 29.2055 117.78 25.8314C115.057 22.4573 115.057 17.6429 117.78 14.2688C120.504 10.8947 125.214 9.88423 129.087 11.8355V0H134.146ZM129.087 20.053C129.087 17.7649 127.229 15.9065 124.941 15.9065C122.653 15.9065 120.794 17.7649 120.794 20.053C120.794 22.3411 122.653 24.1995 124.941 24.1995C127.229 24.1995 129.081 22.3411 129.087 20.053Z" fill="url(#paint6_linear_214811_3)"/>
<path d="M155.47 10.8483V29.252H150.412V28.2647C146.539 30.216 141.829 29.2055 139.105 25.8314C136.381 22.4573 136.381 17.6429 139.105 14.2688C141.829 10.8947 146.539 9.88423 150.412 11.8355V10.8483H155.47ZM146.266 24.1937C148.554 24.1937 150.406 22.3353 150.412 20.0472C150.412 17.7591 148.554 15.9007 146.266 15.9007C143.978 15.9007 142.119 17.7591 142.119 20.0472C142.119 22.3353 143.978 24.1937 146.266 24.1937Z" fill="url(#paint7_linear_214811_3)"/>
<path d="M176.795 0V29.252H171.737V28.2647C167.863 30.216 163.154 29.2055 160.43 25.8314C157.706 22.4573 157.706 17.6429 160.43 14.2688C163.154 10.8947 167.863 9.88423 171.737 11.8355V0H176.795ZM171.737 20.053C171.737 17.7649 169.879 15.9065 167.59 15.9065C165.302 15.9065 163.444 17.7649 163.444 20.053C163.444 22.3411 165.302 24.1995 167.59 24.1995C169.879 24.1995 171.731 22.3411 171.737 20.053Z" fill="url(#paint8_linear_214811_3)"/>
<path d="M193.271 22.4747L196.546 26.325C194.136 28.375 191.935 29.2519 189.194 29.2519C186.279 29.2868 183.509 27.9859 181.673 25.7152C181.325 25.2739 181.017 24.7977 180.756 24.304V24.2866C180.396 23.6188 180.134 22.9044 179.96 22.1669L179.949 22.1204C178.961 17.8404 181.139 13.4616 185.146 11.6613C189.153 9.86098 193.875 11.1444 196.418 14.7218C196.488 14.8147 196.552 14.9134 196.616 15.0122C196.657 15.076 196.697 15.1341 196.732 15.198C196.813 15.3258 196.889 15.4593 196.964 15.5929C196.993 15.6452 197.022 15.7032 197.051 15.7555C197.144 15.9297 197.232 16.104 197.313 16.284V16.2956L197.324 16.313L197.336 16.3362L197.353 16.3827L197.365 16.4176L197.383 16.464L198.376 18.8102L193.277 20.9183L192.58 21.2029L186.952 23.5258C187.591 23.9207 188.335 24.1124 189.084 24.0892C190.599 24.0892 191.767 23.7407 193.259 22.4631L193.271 22.4747ZM185.024 19.4258L185.21 19.3503L188.207 18.1133L191.331 16.8241C191.331 16.8241 191.279 16.7776 191.25 16.7544C190.547 16.2143 189.688 15.9181 188.799 15.9123C188.306 15.9123 187.812 16.011 187.359 16.2143C186.064 16.7892 185.17 18.0146 185.019 19.42L185.024 19.4258Z" fill="url(#paint9_linear_214811_3)"/>
<path d="M37.7366 41.4824V61.9361H32.6784V41.4824C32.6784 39.4149 31.0058 37.7424 28.9384 37.7424C26.8709 37.7424 25.1984 39.4149 25.1984 41.4824V61.9361H20.1401V41.4824C20.1401 39.4149 18.4676 37.7424 16.4002 37.7424C14.3327 37.7424 12.6602 39.4149 12.6602 41.4824V61.9361H7.60192V37.7947H5.18604V32.7364H7.71226C9.077 32.7364 10.3837 33.2997 11.3187 34.2986C14.838 31.8072 19.6407 32.2312 22.6664 35.3091C24.3157 33.625 26.5748 32.6783 28.9326 32.6783C33.7876 32.6783 37.725 36.6216 37.7308 41.4766L37.7366 41.4824Z" fill="url(#paint10_linear_214811_3)"/>
<path d="M60.4959 42.4348V61.9419H55.4376V51.5641H46.1283V61.9768H41.0701V42.4348C41.0759 37.0745 45.4198 32.7306 50.7801 32.7248C56.1403 32.7306 60.4843 37.0745 60.4901 42.4348H60.4959ZM55.4376 46.5058V42.4348C55.4376 39.8621 53.3528 37.7831 50.7859 37.7831C48.219 37.7831 46.1341 39.8679 46.1341 42.4348V46.5058H55.4434H55.4376Z" fill="#81DEF6"/>
<path d="M79.823 47.2898C81.4258 48.8927 82.3201 51.0646 82.3201 53.3295V61.9245H77.2619V53.3295C77.2619 51.4363 75.7636 49.8857 73.8762 49.816H70.2349V61.9245H65.1767V37.7308H62.9814V32.6725H73.7484C78.4814 32.6725 82.3143 36.5112 82.3201 41.2443C82.3201 43.5092 81.42 45.6812 79.823 47.284V47.2898ZM73.7484 44.7578C73.7891 44.7578 73.8355 44.7578 73.8762 44.7578C75.7926 44.6881 77.2967 43.0969 77.2677 41.1804C77.2329 39.264 75.6707 37.7308 73.7542 37.7308H70.2407V44.7578H73.7542H73.7484Z" fill="url(#paint11_linear_214811_3)"/>
<path d="M105.108 42.4348V61.9419H100.05V51.5641H90.7409V61.9768H85.6826V42.4348C85.6884 37.0745 90.0324 32.7306 95.3926 32.7248C100.753 32.7306 105.097 37.0745 105.103 42.4348H105.108ZM100.05 46.5058V42.4348C100.05 39.8621 97.9653 37.7831 95.3984 37.7831C92.8316 37.7831 90.7467 39.8679 90.7467 42.4348V46.5058H100.056H100.05Z" fill="#ED8EFC"/>
<path d="M128.582 41.976V61.9419H123.524V41.976C123.547 40.4487 122.746 39.0258 121.427 38.2535C120.109 37.4811 118.477 37.4811 117.159 38.2535C115.841 39.0258 115.039 40.4487 115.062 41.976V61.9419H110.004V37.8005H107.588V32.7422H110.114C111.549 32.7422 112.914 33.3636 113.849 34.4496C115.428 33.2997 117.333 32.6841 119.284 32.6841C124.412 32.69 128.565 36.8423 128.57 41.9702L128.582 41.976Z" fill="url(#paint12_linear_214811_3)"/>
<path d="M151.394 32.748V61.9652H146.335V49.8857H136.991V62H131.933V32.748H136.991V44.8275H146.335V32.748H151.394Z" fill="#81DEF6"/>
<path d="M174.141 42.4348V61.9419H169.083V51.5641H159.774V61.9768H154.715V42.4348C154.721 37.0745 159.065 32.7306 164.425 32.7248C169.786 32.7306 174.13 37.0745 174.135 42.4348H174.141ZM169.083 46.5058V42.4348C169.083 39.8621 166.998 37.7831 164.431 37.7831C161.864 37.7831 159.78 39.8679 159.78 42.4348V46.5058H169.089H169.083Z" fill="url(#paint13_linear_214811_3)"/>
<path d="M196.5 42.4058V52.2029C196.5 57.5747 192.144 61.9303 186.772 61.9303C181.4 61.9303 177.045 57.5747 177.045 52.2029V42.4058C177.051 37.0339 181.4 32.6842 186.772 32.6783C192.144 32.6842 196.494 37.0339 196.5 42.4058ZM191.442 42.4058C191.442 39.8273 189.351 37.7366 186.772 37.7366C184.194 37.7366 182.103 39.8273 182.103 42.4058V52.2029C182.103 54.7814 184.194 56.872 186.772 56.872C189.351 56.872 191.442 54.7814 191.442 52.2029V42.4058Z" fill="#ED8EFC"/>
</g>
<defs>
<linearGradient id="paint0_linear_214811_3" x1="-1.29892e-05" y1="19.9892" x2="15.7091" y2="19.9892" gradientUnits="userSpaceOnUse">
<stop stop-color="#FFF5E7"/>
<stop offset="1" stop-color="#EFD5D5"/>
</linearGradient>
<linearGradient id="paint1_linear_214811_3" x1="16.766" y1="20.0414" x2="35.1697" y2="20.0414" gradientUnits="userSpaceOnUse">
<stop stop-color="#FFF5E7"/>
<stop offset="1" stop-color="#EFD5D5"/>
</linearGradient>
<linearGradient id="paint2_linear_214811_3" x1="38.0909" y1="20.0472" x2="65.3741" y2="20.0472" gradientUnits="userSpaceOnUse">
<stop stop-color="#FFF5E7"/>
<stop offset="1" stop-color="#EFD5D5"/>
</linearGradient>
<linearGradient id="paint3_linear_214811_3" x1="68.6959" y1="20.0472" x2="84.8696" y2="20.0472" gradientUnits="userSpaceOnUse">
<stop stop-color="#FFF5E7"/>
<stop offset="1" stop-color="#EFD5D5"/>
</linearGradient>
<linearGradient id="paint4_linear_214811_3" x1="88.2263" y1="20.0472" x2="104.394" y2="20.0472" gradientUnits="userSpaceOnUse">
<stop stop-color="#FFF5E7"/>
<stop offset="1" stop-color="#EFD5D5"/>
</linearGradient>
<linearGradient id="paint5_linear_214811_3" x1="107.751" y1="14.6695" x2="112.809" y2="14.6695" gradientUnits="userSpaceOnUse">
<stop stop-color="#FFF5E7"/>
<stop offset="1" stop-color="#EFD5D5"/>
</linearGradient>
<linearGradient id="paint6_linear_214811_3" x1="115.736" y1="14.6289" x2="134.146" y2="14.6289" gradientUnits="userSpaceOnUse">
<stop stop-color="#FFF5E7"/>
<stop offset="1" stop-color="#EFD5D5"/>
</linearGradient>
<linearGradient id="paint7_linear_214811_3" x1="137.061" y1="20.053" x2="155.47" y2="20.053" gradientUnits="userSpaceOnUse">
<stop stop-color="#FFF5E7"/>
<stop offset="1" stop-color="#EFD5D5"/>
</linearGradient>
<linearGradient id="paint8_linear_214811_3" x1="158.386" y1="14.6289" x2="176.795" y2="14.6289" gradientUnits="userSpaceOnUse">
<stop stop-color="#FFF5E7"/>
<stop offset="1" stop-color="#EFD5D5"/>
</linearGradient>
<linearGradient id="paint9_linear_214811_3" x1="179.711" y1="20.053" x2="198.381" y2="20.053" gradientUnits="userSpaceOnUse">
<stop stop-color="#FFF5E7"/>
<stop offset="1" stop-color="#EFD5D5"/>
</linearGradient>
<linearGradient id="paint10_linear_214811_3" x1="5.19765" y1="47.313" x2="37.7366" y2="47.313" gradientUnits="userSpaceOnUse">
<stop stop-color="#FFF5E7"/>
<stop offset="1" stop-color="#EFD5D5"/>
</linearGradient>
<linearGradient id="paint11_linear_214811_3" x1="62.9814" y1="47.3014" x2="82.3202" y2="47.3014" gradientUnits="userSpaceOnUse">
<stop stop-color="#FFF5E7"/>
<stop offset="1" stop-color="#EFD5D5"/>
</linearGradient>
<linearGradient id="paint12_linear_214811_3" x1="107.594" y1="47.313" x2="128.582" y2="47.313" gradientUnits="userSpaceOnUse">
<stop stop-color="#FFF5E7"/>
<stop offset="1" stop-color="#EFD5D5"/>
</linearGradient>
<linearGradient id="paint13_linear_214811_3" x1="154.721" y1="47.3479" x2="174.141" y2="47.3479" gradientUnits="userSpaceOnUse">
<stop stop-color="#FFF5E7"/>
<stop offset="1" stop-color="#EFD5D5"/>
</linearGradient>
<clipPath id="clip0_214811_3">
<rect width="198.381" height="62" fill="white"/>
</clipPath>
</defs>
</svg>
