<svg width="259" height="423" viewBox="0 0 259 423" fill="none" xmlns="http://www.w3.org/2000/svg">
<g clip-path="url(#clip0_214801_2)">
<path d="M46.4351 412.28C46.4351 406.364 87.1108 401.559 137.275 401.559C187.439 401.559 228.115 406.364 228.115 412.28C228.115 418.195 187.454 423 137.275 423C87.0964 423 46.4351 418.195 46.4351 412.28Z" fill="#926B94" fill-opacity="0.4"/>
<path d="M107.298 191.783C106.405 191.783 105.527 191.668 104.691 191.408C92.2655 187.614 90.6097 154.861 90.4657 151.138C90.4225 149.941 91.344 148.931 92.5391 148.888C93.7197 148.859 94.742 149.768 94.7852 150.965C95.3036 163.835 98.788 185.089 105.944 187.267C113.129 189.46 128.291 173.878 136.152 163.547C136.872 162.595 138.225 162.407 139.176 163.143C140.126 163.864 140.313 165.221 139.579 166.173C137.462 168.958 119.709 191.798 107.283 191.798L107.298 191.783Z" fill="#392727"/>
<path d="M112.265 208.246C109.947 208.246 107.571 207.814 105.167 206.919C92.827 202.417 84.9079 189.634 82.2586 169.953C80.6459 157.963 81.553 147.849 81.5962 147.43C81.7114 146.247 82.7625 145.367 83.9432 145.482C85.1239 145.598 86.0022 146.651 85.887 147.834C85.887 147.935 84.9799 157.905 86.5349 169.376C88.2339 181.914 93.0862 197.901 106.65 202.85C111.2 204.524 115.375 204.221 119.407 201.97C134.424 193.544 141.105 161.267 141.177 160.935C141.408 159.767 142.559 159.016 143.726 159.247C144.892 159.478 145.655 160.632 145.41 161.801C145.122 163.201 138.269 196.357 121.523 205.75C118.557 207.41 115.476 208.246 112.279 208.246H112.265Z" fill="#392727"/>
<path d="M161.378 335.116C134.813 335.116 115.217 311.583 114.986 311.295C114.238 310.371 114.367 309.015 115.289 308.25C116.21 307.5 117.564 307.63 118.327 308.553C118.586 308.871 144.762 340.253 176.439 327.902C207.914 315.638 199.966 270.289 199.88 269.827C199.664 268.658 200.441 267.519 201.608 267.302C202.774 267.086 203.911 267.865 204.127 269.034C204.214 269.524 212.824 318.365 178.008 331.927C172.263 334.164 166.677 335.102 161.393 335.102L161.378 335.116Z" fill="#392727"/>
<path d="M137.88 81.4632C137.678 81.4632 137.462 81.4344 137.261 81.3767C136.123 81.0304 135.475 79.8184 135.821 78.6785C135.864 78.5342 140.097 64.0769 136.037 46.6761C132.077 29.6794 119.839 22.696 119.723 22.6239C118.687 22.0467 118.298 20.7337 118.874 19.6804C119.45 18.6416 120.76 18.252 121.797 18.8292C122.373 19.1466 135.821 26.736 140.241 45.6806C144.575 64.2645 140.14 79.299 139.953 79.9194C139.665 80.8572 138.816 81.4488 137.894 81.4488L137.88 81.4632Z" fill="#392727"/>
<path d="M110.523 23.1866C105.714 14.2121 116.455 1.37071 126.563 14.4141C122.358 -2.62598 138.125 -3.23197 142.934 5.72812C145.338 10.2154 145.511 17.4296 144.705 23.1289C143.898 28.8281 142.099 32.998 137.621 35.4075C128.665 40.2266 115.332 32.1611 110.523 23.1866Z" fill="url(#paint0_linear_214801_2)"/>
<path d="M155.835 22.5084C158.038 15.9723 169.341 15.3519 167.598 26.4041C174.063 16.434 181.666 23.9657 179.463 30.5018C178.368 33.7627 174.87 37.1966 171.688 39.4331C168.491 41.6695 165.611 42.7083 162.343 41.5973C155.82 39.3898 153.632 29.0445 155.835 22.5084Z" fill="url(#paint1_linear_214801_2)"/>
<path d="M106.347 61.5519C102.661 59.1712 104.043 52.0868 110.566 54.886C105.44 49.3454 111.257 45.8104 114.929 48.1911C116.772 49.3743 118.341 52.0724 119.219 54.381C120.098 56.7039 120.285 58.6518 119.104 60.4986C116.729 64.1923 110.019 63.9326 106.347 61.5519Z" fill="url(#paint2_linear_214801_2)"/>
<path d="M108.651 25.4807C103.842 16.5062 114.583 3.66484 124.691 16.7082C120.487 -0.331851 136.253 -0.937846 141.062 8.02225C143.467 12.5095 143.639 19.7238 142.833 25.423C142.027 31.1223 140.227 35.2921 135.749 37.7016C126.793 42.5208 113.46 34.4552 108.651 25.4807Z" fill="#DD568D"/>
<path d="M108.651 25.4807C103.842 16.5062 114.583 3.66484 124.691 16.7082C120.487 -0.331851 136.253 -0.937846 141.062 8.02225C143.467 12.5095 143.639 19.7238 142.833 25.423C142.027 31.1223 140.227 35.2921 135.749 37.7016C126.793 42.5208 113.46 34.4552 108.651 25.4807Z" fill="url(#paint3_linear_214801_2)"/>
<path d="M143.164 16.2609C143.164 16.2609 143.236 17.2997 143.265 18.3242C143.279 19.0312 143.265 19.767 143.265 20.0123C143.236 21.888 143.078 23.7348 142.833 25.4374C142.315 29.0878 141.393 32.1034 139.622 34.4408C139.305 34.8592 138.974 35.2488 138.6 35.6095C138.096 36.1145 137.549 36.5762 136.93 36.9946C136.555 37.2543 135.749 37.7161 135.749 37.7161C135.749 37.7161 139.205 35.5229 140.889 26.635C142.675 17.1843 143.164 16.2609 143.164 16.2609Z" fill="#EC8EF8"/>
<path d="M153.833 22.6527C156.036 16.1166 167.354 15.4962 165.597 26.5484C172.062 16.5783 179.664 24.11 177.461 30.6461C176.367 33.9069 172.868 37.3409 169.686 39.5773C166.49 41.8138 163.61 42.8526 160.342 41.7416C153.819 39.5341 151.63 29.1888 153.833 22.6527Z" fill="url(#paint4_linear_214801_2)"/>
<path d="M177.461 30.6461C176.367 33.9069 172.868 37.3409 169.686 39.5773C166.49 41.8138 163.61 42.8526 160.342 41.7416C157.332 40.7316 161.954 42.0446 168.218 39.1445C170.003 38.3221 172.091 36.8215 173.415 35.4364C176.626 32.089 178.296 28.1356 177.461 30.6461Z" fill="#EC8EF8"/>
<path d="M104.864 61.5519C101.178 59.1712 102.56 52.0868 109.083 54.886C103.957 49.3454 109.774 45.8104 113.446 48.1911C115.289 49.3743 116.858 52.0724 117.736 54.381C118.615 56.7039 118.816 58.6518 117.621 60.4986C115.245 64.1923 108.536 63.9326 104.864 61.5519Z" fill="url(#paint5_linear_214801_2)"/>
<path opacity="0.74" d="M111.775 14.111C115.231 11.7159 120.069 12.7259 122.603 16.3763C123.726 18.0067 125.051 21.4551 122.862 26.2743C121.134 30.1122 125.555 30.0834 124.014 34.3975C122.589 38.3509 113.187 30.0545 110.667 26.4041C108.133 22.7537 108.334 16.5062 111.79 14.111H111.775Z" fill="url(#paint6_linear_214801_2)"/>
<path opacity="0.71" d="M124.921 33.8348C125.324 32.6949 126.649 32.1178 127.887 32.5651C129.126 33.0124 129.788 34.2821 129.385 35.4219C128.982 36.5618 127.657 37.1245 126.419 36.6916C125.18 36.2588 124.518 34.9746 124.921 33.8348Z" fill="url(#paint7_linear_214801_2)"/>
<path opacity="0.77" d="M103.424 58.2189C103.151 56.7905 104.029 55.4198 105.383 55.1601C106.736 54.9004 108.061 55.8527 108.334 57.2811C108.608 58.7095 108.349 61.2633 106.995 61.5231C105.642 61.7828 103.712 59.6474 103.424 58.2189Z" fill="url(#paint8_linear_214801_2)"/>
<path opacity="0.83" d="M107.773 51.7694C107.614 50.947 108.046 50.1678 108.737 50.0235C109.429 49.8793 110.12 50.4564 110.278 51.2788C110.436 52.1013 110.004 52.8804 109.313 53.0247C108.622 53.169 107.931 52.5918 107.773 51.7694Z" fill="url(#paint9_linear_214801_2)"/>
<path opacity="0.69" d="M155 25.5961C153.891 24.3264 155.259 21.6572 156.612 20.4596C157.966 19.262 160.586 18.6993 161.695 19.969C163.322 21.8303 162.012 23.8792 160.644 25.0767C159.29 26.2743 156.108 26.8659 154.985 25.5961H155Z" fill="url(#paint10_linear_214801_2)"/>
<path opacity="0.65" d="M154.136 27.6883C154.136 27.1111 154.597 26.635 155.158 26.635C155.72 26.635 156.18 27.1111 156.18 27.6883C156.18 28.2654 155.72 28.7415 155.158 28.7415C154.597 28.7415 154.136 28.2654 154.136 27.6883Z" fill="url(#paint11_linear_214801_2)"/>
<path opacity="0.74" d="M111.156 17.8047C111.156 16.232 112.38 14.9479 113.906 14.9479C115.433 14.9479 116.657 16.232 116.657 17.8047C116.657 19.3775 115.433 20.6616 113.906 20.6616C112.38 20.6616 111.156 19.3775 111.156 17.8047Z" fill="#FFF6E8"/>
<path opacity="0.74" d="M111.056 21.8014C111.056 21.2099 111.545 20.7193 112.135 20.7193C112.726 20.7193 113.215 21.2099 113.215 21.8014C113.215 22.393 112.726 22.8836 112.135 22.8836C111.545 22.8836 111.056 22.393 111.056 21.8014Z" fill="#FAE0D8"/>
<path opacity="0.74" d="M104.835 59.2001C104.072 58.9548 103.669 58.0746 103.943 57.2522C104.216 56.4298 105.051 55.9681 105.814 56.2134C106.578 56.4587 106.981 57.3388 106.707 58.1612C106.434 58.9836 105.599 59.4454 104.835 59.2001Z" fill="#FAE1D8"/>
<path opacity="0.74" d="M150.579 149.869H162.458V161.383H150.579V149.869Z" fill="#FAE1D8"/>
<path d="M67.2985 124.936L75.2465 129.308V147.632C75.2465 147.632 71.3445 145.454 69.7895 144.256C68.2344 143.058 65.5419 138.398 64.8364 133.767C64.1453 129.135 67.2985 124.922 67.2985 124.922V124.936Z" fill="#81DEF6"/>
<path d="M69.0552 116.452C70.2934 114.952 74.109 112.383 74.109 112.383L88.4499 153.216C88.4499 153.216 81.2507 154.255 77.0751 151.312C72.8995 148.368 69.4151 143.304 67.7017 134.834C65.9739 126.35 67.8169 117.967 69.0552 116.467V116.452Z" fill="#C19E9D"/>
<path d="M90.3073 97.45C93.6478 90.8273 105.411 80.9871 144.978 66.9049C184.545 52.8227 209.268 61.9271 213.314 65.1591C217.374 68.391 218.411 83.7718 212.954 106.944C207.497 130.116 198.195 150.994 192.969 156.217C187.742 161.44 177.793 166.101 159.55 168.958C141.307 171.814 125.756 170.703 118.183 167.832C110.609 164.946 102.258 153.014 95.0732 135.094C87.9028 117.174 86.9669 104.087 90.2929 97.4644L90.3073 97.45Z" fill="url(#paint12_linear_214801_2)"/>
<path d="M179.981 59.4309C198.973 58.3344 210.65 63.0092 213.314 65.1591C217.374 68.391 218.411 83.7718 212.954 106.944C209.93 119.785 222.845 87.7829 213.688 71.0459C211.615 67.2512 209.455 65.8661 205.265 63.9038C194.581 58.9115 176.842 59.6185 179.967 59.4454L179.981 59.4309Z" fill="#F6B2FF"/>
<path d="M212.954 106.944C207.497 130.116 198.195 150.994 192.969 156.217C187.742 161.44 177.793 166.101 159.55 168.958C154.654 169.722 161.695 168.77 171.486 164.918C178.44 162.176 186.878 158.295 192.94 151.052C210.146 130.491 215.905 94.4056 212.954 106.944Z" fill="#EC8EF8"/>
<path d="M73.6339 97.0748C76.9743 90.4522 85.527 80.4677 125.108 66.3855C164.676 52.3032 192.609 61.5519 196.655 64.7839C200.715 68.0159 201.752 83.3966 196.295 106.569C190.838 129.741 181.536 150.619 176.309 155.842C171.083 161.065 161.133 165.726 142.891 168.582C124.648 171.439 109.097 170.328 101.524 167.457C93.9501 164.571 85.5846 152.639 78.4142 134.719C71.2437 116.799 70.3078 103.712 73.6339 97.0748Z" fill="url(#paint13_linear_214801_2)"/>
<path d="M73.6339 97.0749C76.0816 92.198 81.3515 85.5176 99.6807 76.7307C106.29 73.5564 114.612 70.108 125.094 66.371C147.455 58.4065 157.707 110.811 145.122 141.587C135.447 165.249 104.807 168.698 101.509 167.457C93.9357 164.571 85.5702 152.639 78.3998 134.719C71.2293 116.799 70.2934 103.712 73.6195 97.0749H73.6339Z" fill="url(#paint14_linear_214801_2)"/>
<path d="M153.013 147.647L156.18 158.107L159.708 164.86L154.424 157.963L153.013 147.661V147.647Z" fill="url(#paint15_linear_214801_2)"/>
<path d="M105.325 74.1336L99.7671 110.263L77.7374 132.886L97.7513 107.247L105.325 74.1191V74.1336Z" fill="url(#paint16_linear_214801_2)"/>
<path d="M85.383 103.597C86.4917 99.0227 111.66 83.1225 135.907 78.0437C160.154 72.9648 174.107 75.6341 178.138 78.8805C182.184 82.1269 184.617 96.743 181.263 111.07C177.908 125.398 173.084 135.094 168.707 140.187C164.33 145.295 155.288 151.456 139.709 153.894C124.129 156.318 110.206 152.596 106.448 150.056C102.69 147.517 95.1596 140.995 89.9329 129.395C84.7207 117.809 84.2743 108.156 85.3686 103.582L85.383 103.597Z" fill="url(#paint17_linear_214801_2)"/>
<path opacity="0.5" d="M161.076 75.2157C170.147 75.3167 175.806 77.0048 178.138 78.895C182.184 82.1414 184.617 96.7574 181.263 111.085C177.908 125.412 173.084 135.108 168.707 140.202C164.33 145.309 155.288 151.47 139.709 153.909C124.129 156.333 110.206 152.61 106.448 150.071C104.36 148.657 133.416 149.912 148.304 129.683C157.188 117.621 165.583 99.874 160.615 88.6919C154.611 75.2013 139.723 80.5687 139.939 77.8994C140.068 76.3411 160.586 75.2013 161.061 75.2013L161.076 75.2157Z" fill="#0E3A6B"/>
<path d="M181.263 111.085C177.908 125.412 173.084 135.108 168.707 140.202C164.33 145.309 155.288 151.47 139.709 153.909C131.789 155.15 151.184 153.433 164.186 140.49C176.785 127.952 182.904 104.029 181.263 111.085Z" fill="#0E3A6B"/>
<path d="M85.383 103.597C86.4917 99.0227 111.66 83.1225 135.907 78.0437C147.282 75.663 156.396 74.9848 163.279 75.2734C167.411 75.4465 170.737 75.966 173.271 76.673C175.518 77.3078 149.571 74.5376 125.353 83.5409C107.427 90.2069 88.7667 105.905 88.7667 105.905C88.7667 105.905 88.4067 118.703 92.0927 128.991C96.8586 142.265 108.55 151.485 106.448 150.056C102.69 147.517 95.1596 140.995 89.9329 129.395C84.7207 117.809 84.2743 108.156 85.3686 103.582L85.383 103.597Z" fill="#0E3A6B"/>
<path d="M200.038 82.1558C203.638 79.8184 209.08 78.2024 215.934 80.1935C222.788 82.1847 225.797 86.2391 227.28 92.8906C228.763 99.5421 224.055 124.633 213.99 132.901C203.926 141.168 189.484 132.656 186.676 129.683C183.869 126.711 187.785 113.783 191.212 101.836C194.639 89.8895 196.439 84.4932 200.038 82.1702V82.1558Z" fill="#90605F"/>
<path d="M200.038 82.1558C200.355 81.9538 204.502 78.6497 204.588 81.9394C204.718 87.0326 200.413 100.48 198.325 107.853C196.165 115.428 193.328 127.577 190.636 131.516C189.038 133.868 186.82 129.828 186.676 129.683C183.869 126.711 187.785 113.783 191.212 101.836C194.639 89.8895 196.439 84.4932 200.038 82.1702V82.1558Z" fill="#F7EEE6"/>
<path opacity="0.47" d="M110.624 142.626C106.794 137.143 112.135 131.328 118.082 129.856C124.907 128.168 134.856 128.096 135.922 118.011C137.966 98.6043 165.813 82.4588 174.049 94.218C182.285 105.977 173.545 131.559 158.052 142.452C142.574 153.346 118.874 154.37 110.624 142.611V142.626Z" fill="#AAC9EB"/>
<path d="M144.618 70.0214C144.143 67.5253 145.986 65.0725 148.722 64.553C151.472 64.0336 154.078 65.6208 154.553 68.1169C155.029 70.613 153.185 73.0659 150.45 73.5853C147.714 74.1047 145.094 72.5176 144.618 70.0214Z" fill="#BD7E7E"/>
<path d="M143.351 69.4732C142.876 66.977 144.719 64.5386 147.455 64.0048C150.191 63.4853 152.811 65.0725 153.286 67.5686C153.761 70.0647 151.918 72.5031 149.183 73.037C146.433 73.5564 143.826 71.9693 143.351 69.4732Z" fill="url(#paint18_linear_214801_2)"/>
<path d="M206.719 98.6043C207.857 94.5354 212.061 92.1547 216.121 93.2946L216.899 93.511C220.959 94.6509 223.335 98.864 222.197 102.933L217.748 118.92C216.611 122.988 212.406 125.369 208.346 124.244L207.569 124.027C203.508 122.887 201.132 118.674 202.27 114.605L206.719 98.6187V98.6043Z" fill="#81DEF6"/>
<path d="M211.557 104.376C212.133 102.312 213.371 100.855 214.321 101.115L214.509 101.158C215.459 101.418 215.761 103.322 215.185 105.386L212.925 113.509C212.349 115.572 211.111 117.044 210.16 116.77L209.973 116.726C209.023 116.467 208.72 114.562 209.296 112.499L211.557 104.376Z" fill="#E3F3F7"/>
<path d="M104.576 123.695C103.309 115.76 107.254 108.531 113.388 107.55C119.522 106.569 126.894 114.216 128.147 122.152C129.414 130.087 124.892 136.392 118.269 136.392C112.063 136.392 105.829 131.617 104.576 123.681V123.695Z" fill="#D5F6FF"/>
<mask id="mask0_214801_2" style="mask-type:luminance" maskUnits="userSpaceOnUse" x="104" y="107" width="25" height="30">
<path d="M104.576 123.695C103.309 115.76 107.254 108.531 113.388 107.55C119.522 106.569 126.894 114.216 128.147 122.152C129.414 130.087 124.892 136.392 118.269 136.392C112.063 136.392 105.829 131.617 104.576 123.681V123.695Z" fill="white"/>
</mask>
<g mask="url(#mask0_214801_2)">
<path d="M110.768 129.957C111.948 128.269 114.497 128.024 116.455 129.395C118.413 130.765 119.047 133.262 117.866 134.95C116.685 136.638 114.137 136.883 112.179 135.512C110.22 134.127 109.587 131.646 110.768 129.957Z" fill="#F5FAFC"/>
</g>
<path d="M134.842 114.158C133.575 106.223 137.52 98.9938 143.654 98.0127C149.787 97.0316 157.159 104.679 158.412 112.614C159.665 120.55 155.158 126.855 148.535 126.855C142.329 126.855 136.095 122.079 134.827 114.144L134.842 114.158Z" fill="#D5F6FF"/>
<mask id="mask1_214801_2" style="mask-type:luminance" maskUnits="userSpaceOnUse" x="134" y="97" width="25" height="30">
<path d="M134.842 114.158C133.575 106.223 137.52 98.9938 143.654 98.0127C149.787 97.0316 157.159 104.679 158.412 112.614C159.665 120.55 155.158 126.855 148.535 126.855C142.329 126.855 136.095 122.079 134.827 114.144L134.842 114.158Z" fill="white"/>
</mask>
<g mask="url(#mask1_214801_2)">
<path d="M141.033 120.42C142.214 118.732 144.762 118.487 146.721 119.857C148.679 121.243 149.312 123.724 148.132 125.412C146.951 127.101 144.402 127.346 142.444 125.975C140.486 124.59 139.853 122.108 141.033 120.42Z" fill="#F5FAFC"/>
</g>
<path d="M118.456 99.8884C120.76 98.0993 114.569 94.9539 109.846 97.9262C105.109 100.898 101.668 108.762 101.668 108.762C101.668 108.762 104.792 104.102 109.846 100.971C113.561 98.6764 117.333 100.769 118.456 99.9028V99.8884Z" fill="#B2D1F2"/>
<path d="M135.504 96.1514C132.768 96.0648 136.757 91.1303 141.912 90.7552C147.066 90.3656 154.424 94.5066 154.424 94.5066C154.424 94.5066 149.312 92.6597 143.827 93.107C139.809 93.4244 136.829 96.1947 135.504 96.1514Z" fill="#B2D1F2"/>
<path d="M73.9506 108.849C73.5763 104.448 75.9664 100.105 78.443 99.8884C80.9195 99.672 83.5832 104.159 82.0426 109.916C80.8907 114.173 82.7481 120.435 80.2716 120.651C77.795 120.867 74.325 113.249 73.9506 108.849Z" fill="#FCFAF7"/>
<path d="M79.8108 96.1659C78.6445 94.7086 79.0045 92.4722 80.6315 91.1447C82.2586 89.8317 84.5191 89.9472 85.6998 91.4045C86.8661 92.8617 86.5061 95.1126 84.8791 96.4256C83.2521 97.7386 80.9915 97.6231 79.8108 96.1659Z" fill="#FCFAF7"/>
<path d="M87.1108 90.0626C86.4341 89.2258 86.6501 87.9561 87.586 87.2058C88.5075 86.4555 89.8034 86.5276 90.4657 87.3501C91.128 88.1869 90.9264 89.4566 89.9905 90.2069C89.069 90.9572 87.7732 90.885 87.1108 90.0626Z" fill="#FCFAF7"/>
<path opacity="0.65" d="M144.1 68.3766C144.1 66.8327 145.324 65.5775 146.836 65.5775C148.348 65.5775 149.571 66.8327 149.571 68.3766C149.571 69.9204 148.348 71.1757 146.836 71.1757C145.324 71.1757 144.1 69.9204 144.1 68.3766Z" fill="url(#paint19_linear_214801_2)"/>
<path opacity="0.65" d="M89.8898 105.92L101.668 97.9261L93.187 107.853L90.8545 119.309L89.8898 105.92Z" fill="#FFE89F"/>
<path d="M154.625 141.947C162.833 136.667 168.534 131.516 168.534 131.516C168.534 131.516 164.776 138.34 156.569 143.621C148.362 148.902 141.307 149.869 141.307 149.869C141.307 149.869 146.418 147.228 154.625 141.947Z" fill="#FFE89F"/>
<path d="M158.527 154.688C158.527 153.534 159.463 152.581 160.63 152.581C161.796 152.581 162.732 153.519 162.732 154.688C162.732 155.857 161.796 156.794 160.63 156.794C159.463 156.794 158.527 155.857 158.527 154.688Z" fill="#EFD5D5"/>
<path d="M157.951 154.688C157.951 153.534 158.887 152.581 160.054 152.581C161.22 152.581 162.156 153.519 162.156 154.688C162.156 155.857 161.22 156.794 160.054 156.794C158.887 156.794 157.951 155.857 157.951 154.688Z" fill="url(#paint20_linear_214801_2)"/>
<path d="M47.9182 220.438C72.1508 204.004 99.7527 189.345 99.7527 189.345C99.7527 189.345 92.7407 228.793 75.2321 244.823C57.7235 260.838 38.156 261.459 29.7185 253.436C21.281 245.414 23.6855 236.887 47.9182 220.453V220.438Z" fill="url(#paint21_linear_214801_2)"/>
<path d="M47.9182 220.438C72.1508 204.004 99.7527 189.345 99.7527 189.345C99.7527 189.345 91.416 197.757 73.9074 213.787C69.5303 217.784 67.4713 225.301 62.5326 228.057C57.7955 230.697 52.4537 233.568 47.8894 234.535C38.1128 236.598 30.712 234.304 32.0942 232.919C33.7789 231.245 35.7946 229.471 38.1704 227.566C40.9205 225.373 44.1602 223.007 47.9182 220.453V220.438Z" fill="url(#paint22_linear_214801_2)"/>
<path d="M47.9182 220.438C72.1508 204.004 99.7527 189.345 99.7527 189.345C99.7527 189.345 103.021 186.156 85.527 202.172C81.1499 206.169 44.1602 222.992 47.9182 220.438Z" fill="#AEE9F8"/>
<path d="M101.236 187.657C109.328 182.636 123.942 181.034 146.49 182.203C169.038 183.372 185.798 187.816 191.428 192.346C197.043 196.862 226.416 237.695 216.712 269.409C206.993 301.123 162.703 319.086 152.581 320.745C142.459 322.405 112.035 318.466 88.4499 303.157C64.8652 287.848 60.3729 268.658 58.2419 257.996C56.1109 247.319 59.0626 235.083 69.9911 218.231C80.9051 201.393 93.1438 192.678 101.236 187.657Z" fill="url(#paint23_linear_214801_2)"/>
<path d="M146.49 182.217C169.038 183.386 185.798 187.83 191.428 192.361C193.242 193.818 190.665 202.547 187.454 210.555C186.676 212.488 183.235 213.57 182.846 215.432C181.219 223.194 192.076 203.341 181.522 194.352C168.074 182.881 133.848 181.583 146.476 182.232L146.49 182.217Z" fill="#AEE9F8"/>
<path d="M101.236 187.657C109.328 182.636 123.942 181.034 146.49 182.203C157.159 182.766 153.258 225.662 130.364 244.808C104.864 266.119 59.3794 263.608 58.2563 257.996C56.1253 247.319 59.077 235.083 70.0054 218.231C80.9195 201.393 93.1582 192.678 101.25 187.657H101.236Z" fill="url(#paint24_linear_214801_2)"/>
<path d="M191.428 192.346C197.043 196.862 226.416 237.695 216.712 269.409C206.993 301.123 162.703 319.086 152.581 320.745C142.459 322.405 185.798 187.816 191.428 192.346Z" fill="url(#paint25_linear_214801_2)"/>
<path d="M216.712 269.423C206.993 301.137 162.703 319.1 152.581 320.76C147.772 321.553 175.388 311.569 192.94 295.091C212.277 276.94 221.794 252.787 216.712 269.423Z" fill="#ED8EFC"/>
<path d="M200.038 202.172C206.633 202.172 222.716 219.327 234.681 240.465C246.661 261.603 252.852 280.822 240.138 286.247C227.424 291.672 205.049 278.225 193.602 258.66C187.699 248.56 182.803 231.678 185.712 219.169C188.447 207.438 193.429 202.172 200.024 202.172H200.038Z" fill="url(#paint26_linear_214801_2)"/>
<path d="M200.038 202.172C206.633 202.172 222.716 219.327 234.681 240.465C246.66 261.603 252.852 280.822 240.138 286.247C239.101 286.694 236.481 287.401 233.745 287.459C229.656 287.545 225.149 286.521 224.127 283.765C222.313 278.888 233.558 270.015 233.313 258.472C233.054 246.843 225.567 231.476 218.655 221.881C209.628 209.357 197.864 202.172 200.038 202.172Z" fill="#BD7E7E"/>
<path d="M225.653 263.839C223.205 263.839 220.441 262.988 217.532 261.285C212.838 258.544 208.231 253.884 204.574 248.156C196.712 235.863 195.719 222.891 202.342 218.635C208.965 214.378 220.311 220.684 228.173 232.991C233.817 241.807 236.279 250.969 234.623 256.885C233.99 259.107 232.42 261.213 230.405 262.497C229.022 263.392 227.424 263.825 225.667 263.825L225.653 263.839ZM207.093 220.193C205.898 220.193 204.804 220.467 203.883 221.073C198.8 224.334 200.225 236.036 206.978 246.597C210.405 251.95 214.653 256.279 218.972 258.789C222.975 261.127 226.488 261.588 228.835 260.073C230.246 259.165 231.398 257.65 231.83 256.106C233.284 250.955 230.937 242.687 225.739 234.55C220.21 225.892 212.493 220.193 207.093 220.193Z" fill="#AEE9F8"/>
<path d="M226.675 263.507C220.326 263.507 211.989 257.433 205.711 247.622C197.85 235.329 196.655 222.487 203.004 218.418C209.354 214.335 220.498 220.785 228.36 233.078C236.222 245.371 237.417 258.212 231.067 262.295C229.771 263.118 228.288 263.522 226.675 263.522V263.507ZM207.453 220.063C206.359 220.063 205.38 220.323 204.545 220.857C199.721 223.959 201.363 235.502 208.13 246.078C214.897 256.654 224.688 262.974 229.512 259.871C234.335 256.769 232.694 245.227 225.941 234.651C220.34 225.907 212.68 220.078 207.468 220.078L207.453 220.063Z" fill="#9B5757"/>
<path d="M200.038 202.172C206.633 202.172 222.716 219.327 234.681 240.465C240.613 250.94 231.499 234.838 219.937 220.698C216.323 216.283 208.792 210.324 204.516 207.655C198.454 203.889 192.609 204.928 193.847 204.062C195.704 202.778 197.763 202.158 200.024 202.158L200.038 202.172Z" fill="#AEE9F8"/>
<path d="M231.859 295.106C232.881 292.74 235.617 290.157 241.059 288.858C246.502 287.574 251.225 288.382 253.831 290.878C256.437 293.374 260.238 301.656 258.626 311.424C257.013 321.193 252.19 327.051 247.179 328.104C242.168 329.157 237.229 324.771 233.399 316.301C229.569 307.832 230.851 297.472 231.873 295.106H231.859Z" fill="#BD7E7E"/>
<path d="M258.611 311.424C256.999 321.193 252.175 327.051 247.164 328.104C244.933 328.58 250.548 324.223 253.701 319.173C257.618 312.896 259.504 306.014 258.611 311.424Z" fill="#ED8EFC"/>
<path d="M225.092 295.308C227.554 294.442 229.426 296.318 229.886 297.876C230.347 299.434 231.009 304.917 228.274 308.265C225.538 311.612 221.578 314.584 218.655 309.679C215.733 304.773 222.615 296.188 225.092 295.322V295.308Z" fill="#BD7E7E"/>
<path d="M19.8267 253.379C23.4263 250.565 30.8704 251.734 30.5536 258.472C30.2512 265.21 25.2405 274.3 18.3725 281.226C11.5188 288.166 -0.100788 289.262 9.65251e-07 281.875C0.0431964 278.253 4.14677 272.727 8.5383 266.956C13.1026 260.983 17.9981 254.807 19.8267 253.379Z" fill="url(#paint27_linear_214801_2)"/>
<path d="M19.8267 253.379C20.9498 252.499 22.4472 252.008 23.9735 251.95C25.5429 251.893 22.6776 260.117 17.4078 265.441C11.49 271.414 3.05248 274.473 4.39154 272.554C5.64421 270.751 7.06966 268.86 8.5383 266.956C13.1026 260.983 17.9981 254.807 19.8267 253.379Z" fill="url(#paint28_linear_214801_2)"/>
<path d="M32.5982 261.415C33.6925 260.449 37.0185 260.232 37.4937 263.522C37.9688 266.812 37.3209 271.472 34.5132 274.603C31.7055 277.72 27.7171 278.47 26.522 274.43C25.9461 272.511 27.6163 269.654 29.0417 267.129C30.6256 264.33 32.0366 261.935 32.6126 261.415H32.5982Z" fill="#C78D8C"/>
<path d="M80.1564 309.765C88.4499 308.265 97.4058 315.609 104.331 321.106C111.257 326.603 116.34 338.045 116.34 342.532C116.34 347.02 100.775 355.821 84.8791 358.548C68.9976 361.275 57.3636 356.34 54.9014 342.085C52.4393 327.815 71.8485 311.266 80.142 309.765H80.1564Z" fill="#C78D8C"/>
<path d="M80.1564 309.765C88.4499 308.265 97.4058 315.609 104.331 321.106C111.257 326.603 116.34 338.045 116.34 342.532C116.34 347.02 100.775 355.821 84.8791 358.548C68.9976 361.275 57.3636 356.34 54.9014 342.085C52.4393 327.815 71.8485 311.266 80.142 309.765H80.1564Z" fill="url(#paint29_linear_214801_2)"/>
<path d="M104.504 352.257C98.9176 354.941 91.9343 357.35 84.8935 358.562C73.3027 360.553 63.9725 358.461 58.8178 351.651C57.8531 350.381 71.0853 353.729 83.7416 353.801C96.1387 353.859 107.989 350.598 104.504 352.272V352.257Z" fill="#ED8EFC"/>
<path d="M81.3947 339.762C90.8977 334.77 102.748 337.208 102.748 337.208C102.748 337.208 89.1698 331.466 79.6668 336.458C70.1638 341.45 64.7356 357.163 64.7356 357.163C64.7356 357.163 71.8916 344.754 81.3947 339.762Z" fill="url(#paint30_linear_214801_2)"/>
<path d="M80.1564 309.765C88.4499 308.265 97.4058 315.609 104.331 321.106C111.257 326.603 116.34 338.045 116.34 342.532C116.34 343.946 111.358 343.153 105.311 340.123C99.9975 337.468 93.9213 332.981 88.7667 328.248C81.1643 321.279 76.7439 310.357 80.142 309.751L80.1564 309.765Z" fill="#ED8EFC"/>
<path d="M80.1564 309.765C88.4499 308.265 97.4058 315.609 104.331 321.106C111.257 326.603 116.34 338.045 116.34 342.532C116.34 344.942 103.208 337.526 92.6111 328.263C83.468 320.269 76.2976 310.458 80.142 309.765H80.1564Z" fill="#9B5757"/>
<path d="M148.362 172.161C149.168 171.353 163.394 170.256 164.589 170.631C165.799 171.006 165.712 173.402 165.712 176.302C165.712 179.202 165.266 180.601 164.575 181.842C163.884 183.097 147.21 180.443 146.836 179.332C146.461 178.221 146.634 177.211 147.009 175.422C147.383 173.632 147.556 172.969 148.348 172.161H148.362Z" fill="#392727"/>
<path d="M97.5354 311.251C99.0472 311.266 115.533 317.917 115.533 319.851C115.533 321.784 113.561 324.468 110.552 326.993C107.542 329.518 106.261 330.109 104.346 329.879C103.352 329.763 98.3417 327.657 94.6557 324.482C91.1856 321.481 88.9971 317.398 88.8243 316.734C88.4787 315.378 90.5233 314.325 92.7695 312.896C95.2604 311.309 96.0235 311.237 97.5354 311.251Z" fill="#392727"/>
<path d="M130.364 275.324C151.011 266.408 173.43 268.99 173.43 268.99C173.43 268.99 151.011 268.283 130.364 277.2C109.716 286.102 90.8545 304.629 90.8545 304.629C90.8545 304.629 109.716 284.241 130.364 275.324Z" fill="url(#paint31_linear_214801_2)"/>
<path d="M129.154 181.842C129.154 181.842 140.716 191.423 154.136 199.618C167.555 207.814 182.846 214.624 182.846 214.624C182.846 214.624 167.843 210.367 154.424 202.172C141.004 193.977 129.154 181.842 129.154 181.842Z" fill="url(#paint32_linear_214801_2)"/>
<path d="M212.003 241.187C208.001 235.069 207.021 228.634 209.8 226.816C212.579 224.998 218.065 228.475 222.068 234.578C226.071 240.696 227.05 247.131 224.271 248.949C221.492 250.767 216.006 247.29 212.003 241.172V241.187Z" fill="#81DEF6"/>
<path d="M213.803 239.917C211.283 236.007 210.636 231.938 212.363 230.813C214.091 229.687 217.547 231.952 220.067 235.848C222.586 239.758 223.234 243.841 221.506 244.967C219.779 246.092 216.323 243.827 213.803 239.917Z" fill="url(#paint33_linear_214801_2)"/>
<path d="M104.187 228.345C105.973 223.093 113.086 221.91 112.654 230.134C118.154 222.487 122.574 228.749 120.775 234.016C118.975 239.282 112.697 245.039 108.104 243.481C103.511 241.922 102.388 233.612 104.173 228.345H104.187Z" fill="url(#paint34_linear_214801_2)"/>
<path d="M104.187 228.345C104.49 227.465 104.936 226.7 105.469 226.08C106.088 225.359 106.822 224.81 107.6 224.507C107.974 224.349 108.579 224.19 108.953 224.19C109.328 224.19 109.846 224.276 110.465 224.478C111.156 224.695 111.646 225.488 111.646 225.488C111.646 225.488 108.219 225.056 106.347 227.364C105.267 228.706 104.49 231.375 104.331 233.15C104.159 235.141 104.461 238.719 105.311 240.364C106.506 242.687 108.421 243.582 108.421 243.582C108.421 243.582 107.686 243.423 107.024 242.976C106.462 242.601 106.03 242.139 105.901 241.995C105.008 240.927 104.259 239.527 103.856 237.911C103.079 234.838 103.252 231.101 104.187 228.374V228.345Z" fill="#A86969"/>
<path d="M79.6236 213.859C83.4824 209.141 89.3138 207.525 92.6255 210.252C95.9515 212.979 95.7067 216.86 87.226 222.011C82.0138 225.171 77.2335 236.18 73.9218 233.453C70.6102 230.726 75.7648 218.592 79.6236 213.873V213.859Z" fill="#FDFCFB"/>
<path d="M94.1661 200.498C95.9083 198.724 100.429 197.31 102.128 198.998C103.827 200.671 101.567 204.134 99.8247 205.909C98.0825 207.684 95.4044 208.117 93.7053 206.443C92.0063 204.769 92.4239 202.273 94.1661 200.513V200.498Z" fill="#FDFCFB"/>
<path d="M135.403 289.666C135.403 284.847 139.291 280.952 144.1 280.952C148.909 280.952 152.797 284.847 152.797 289.666C152.797 294.485 148.909 298.381 144.1 298.381C139.291 298.381 135.403 294.485 135.403 289.666Z" fill="#9B6161"/>
<path d="M133.877 288.267C133.877 283.448 137.765 279.552 142.574 279.552C147.383 279.552 151.271 283.448 151.271 288.267C151.271 293.086 147.383 296.982 142.574 296.982C137.765 296.982 133.877 293.086 133.877 288.267Z" fill="url(#paint35_linear_214801_2)"/>
<path d="M133.157 304.629C133.157 301.7 135.533 299.319 138.456 299.319C141.379 299.319 143.755 301.7 143.755 304.629C143.755 307.558 141.379 309.938 138.456 309.938C135.533 309.938 133.157 307.558 133.157 304.629Z" fill="#9B6161"/>
<path d="M131.991 303.676C131.991 300.747 134.367 298.367 137.29 298.367C140.212 298.367 142.588 300.747 142.588 303.676C142.588 306.605 140.212 308.986 137.29 308.986C134.367 308.986 131.991 306.605 131.991 303.676Z" fill="url(#paint36_linear_214801_2)"/>
<path d="M137.117 288.267C137.117 285.251 139.565 282.813 142.574 282.813C145.583 282.813 148.016 285.251 148.016 288.267C148.016 291.282 145.569 293.721 142.574 293.721C139.579 293.721 137.117 291.282 137.117 288.267Z" fill="#F24682"/>
<path d="M133.791 303.676C133.791 301.743 135.346 300.185 137.275 300.185C139.205 300.185 140.76 301.743 140.76 303.676C140.76 305.61 139.205 307.168 137.275 307.168C135.346 307.168 133.791 305.61 133.791 303.676Z" fill="#F24682"/>
</g>
<defs>
<linearGradient id="paint0_linear_214801_2" x1="146.461" y1="22.7826" x2="120.189" y2="14.8628" gradientUnits="userSpaceOnUse">
<stop stop-color="#A21921"/>
<stop offset="1" stop-color="#AC265D"/>
</linearGradient>
<linearGradient id="paint1_linear_214801_2" x1="172.623" y1="42.6795" x2="164.025" y2="20.5438" gradientUnits="userSpaceOnUse">
<stop stop-color="#A31B29"/>
<stop offset="1" stop-color="#AC265A"/>
</linearGradient>
<linearGradient id="paint2_linear_214801_2" x1="104.346" y1="55.3765" x2="119.939" y2="55.3765" gradientUnits="userSpaceOnUse">
<stop stop-color="#AC2659"/>
<stop offset="1" stop-color="#A31B29"/>
</linearGradient>
<linearGradient id="paint3_linear_214801_2" x1="117.031" y1="18.1222" x2="143.816" y2="23.31" gradientUnits="userSpaceOnUse">
<stop stop-color="#DD568D"/>
<stop offset="1" stop-color="#D93939"/>
</linearGradient>
<linearGradient id="paint4_linear_214801_2" x1="158.643" y1="25.8847" x2="172.528" y2="35.7986" gradientUnits="userSpaceOnUse">
<stop stop-color="#DD568D"/>
<stop offset="1" stop-color="#DA3E49"/>
</linearGradient>
<linearGradient id="paint5_linear_214801_2" x1="106.794" y1="56.1124" x2="117.896" y2="54.3305" gradientUnits="userSpaceOnUse">
<stop stop-color="#DD568D"/>
<stop offset="1" stop-color="#DA3D45"/>
</linearGradient>
<linearGradient id="paint6_linear_214801_2" x1="123.841" y1="26.4041" x2="108.853" y2="18.2638" gradientUnits="userSpaceOnUse">
<stop stop-color="#F28099"/>
<stop offset="1" stop-color="#F2D4BE"/>
</linearGradient>
<linearGradient id="paint7_linear_214801_2" x1="163.282" y1="41.2919" x2="161.207" y2="41.8459" gradientUnits="userSpaceOnUse">
<stop stop-color="#F28099"/>
<stop offset="1" stop-color="#F2D4BE"/>
</linearGradient>
<linearGradient id="paint8_linear_214801_2" x1="107.427" y1="58.5508" x2="104.014" y2="57.8897" gradientUnits="userSpaceOnUse">
<stop stop-color="#F28099"/>
<stop offset="1" stop-color="#F2D4BE"/>
</linearGradient>
<linearGradient id="paint9_linear_214801_2" x1="109.616" y1="51.7261" x2="107.513" y2="51.0361" gradientUnits="userSpaceOnUse">
<stop stop-color="#F28099"/>
<stop offset="1" stop-color="#F2D4BE"/>
</linearGradient>
<linearGradient id="paint10_linear_214801_2" x1="159.737" y1="23.6627" x2="155.974" y2="21.2891" gradientUnits="userSpaceOnUse">
<stop stop-color="#F28099"/>
<stop offset="1" stop-color="#F2D4BE"/>
</linearGradient>
<linearGradient id="paint11_linear_214801_2" x1="155.504" y1="27.8758" x2="154.034" y2="27.0848" gradientUnits="userSpaceOnUse">
<stop stop-color="#F28099"/>
<stop offset="1" stop-color="#F2D4BE"/>
</linearGradient>
<linearGradient id="paint12_linear_214801_2" x1="148.866" y1="97.8829" x2="184.994" y2="141.296" gradientUnits="userSpaceOnUse">
<stop stop-color="#DBA3A3"/>
<stop offset="1" stop-color="#BC7E7E"/>
</linearGradient>
<linearGradient id="paint13_linear_214801_2" x1="71.7909" y1="114.533" x2="200.038" y2="114.533" gradientUnits="userSpaceOnUse">
<stop stop-color="#F4DFDF"/>
<stop offset="1" stop-color="#D3A2A2"/>
</linearGradient>
<linearGradient id="paint14_linear_214801_2" x1="86.031" y1="85.5321" x2="132.029" y2="131.29" gradientUnits="userSpaceOnUse">
<stop stop-color="#F8F2E9"/>
<stop offset="1" stop-color="#EFD5D5"/>
</linearGradient>
<linearGradient id="paint15_linear_214801_2" x1="153.013" y1="156.261" x2="159.708" y2="156.261" gradientUnits="userSpaceOnUse">
<stop stop-color="#BD7E7E"/>
<stop offset="1" stop-color="#805252"/>
</linearGradient>
<linearGradient id="paint16_linear_214801_2" x1="78.2126" y1="103.524" x2="109.328" y2="103.524" gradientUnits="userSpaceOnUse">
<stop stop-color="#D39B9B"/>
<stop offset="1" stop-color="#B78585"/>
</linearGradient>
<linearGradient id="paint17_linear_214801_2" x1="124.576" y1="106.583" x2="166.028" y2="124.815" gradientUnits="userSpaceOnUse">
<stop stop-color="#3D86D9"/>
<stop offset="1" stop-color="#225590"/>
</linearGradient>
<linearGradient id="paint18_linear_214801_2" x1="143.265" y1="68.5209" x2="153.358" y2="68.5209" gradientUnits="userSpaceOnUse">
<stop stop-color="#DD568D"/>
<stop offset="1" stop-color="#A13360"/>
</linearGradient>
<linearGradient id="paint19_linear_214801_2" x1="148.981" y1="68.9537" x2="144.66" y2="67.8039" gradientUnits="userSpaceOnUse">
<stop stop-color="#E9A0BE"/>
<stop offset="1" stop-color="#F6D6BE"/>
</linearGradient>
<linearGradient id="paint20_linear_214801_2" x1="153.498" y1="150.713" x2="157.705" y2="150.713" gradientUnits="userSpaceOnUse">
<stop stop-color="#D39B9B"/>
<stop offset="1" stop-color="#6B2626"/>
</linearGradient>
<linearGradient id="paint21_linear_214801_2" x1="77.3055" y1="233.972" x2="52.503" y2="209.236" gradientUnits="userSpaceOnUse">
<stop stop-color="#C18585"/>
<stop offset="1" stop-color="#F3DEDE"/>
</linearGradient>
<linearGradient id="paint22_linear_214801_2" x1="70.0486" y1="231.75" x2="66.0732" y2="212.492" gradientUnits="userSpaceOnUse">
<stop stop-color="#E1BDBD"/>
<stop offset="1" stop-color="#FCEEE3"/>
</linearGradient>
<linearGradient id="paint23_linear_214801_2" x1="98.1833" y1="204.365" x2="169.384" y2="280.89" gradientUnits="userSpaceOnUse">
<stop stop-color="#F4DFDF"/>
<stop offset="1" stop-color="#D4A4A4"/>
</linearGradient>
<linearGradient id="paint24_linear_214801_2" x1="80.9195" y1="202.489" x2="121.604" y2="235.304" gradientUnits="userSpaceOnUse">
<stop stop-color="#FFF5E7"/>
<stop offset="1" stop-color="#EFD5D5"/>
</linearGradient>
<linearGradient id="paint25_linear_214801_2" x1="179.751" y1="267.201" x2="217.131" y2="319.286" gradientUnits="userSpaceOnUse">
<stop stop-color="#C08282"/>
<stop offset="1" stop-color="#D29B9B"/>
</linearGradient>
<linearGradient id="paint26_linear_214801_2" x1="235.703" y1="251.099" x2="189.813" y2="236.941" gradientUnits="userSpaceOnUse">
<stop stop-color="#C38686"/>
<stop offset="1" stop-color="#D6A7A7"/>
</linearGradient>
<linearGradient id="paint27_linear_214801_2" x1="20.0139" y1="277.647" x2="12.3161" y2="264.979" gradientUnits="userSpaceOnUse">
<stop stop-color="#C58988"/>
<stop offset="1" stop-color="#F4DFDF"/>
</linearGradient>
<linearGradient id="paint28_linear_214801_2" x1="18.2861" y1="269.236" x2="12.2491" y2="259.204" gradientUnits="userSpaceOnUse">
<stop stop-color="#E7C8C8"/>
<stop offset="1" stop-color="#FCEFE4"/>
</linearGradient>
<linearGradient id="paint29_linear_214801_2" x1="88.0324" y1="345.966" x2="71.0603" y2="315.48" gradientUnits="userSpaceOnUse">
<stop stop-color="#C58888"/>
<stop offset="1" stop-color="#F4DFDF"/>
</linearGradient>
<linearGradient id="paint30_linear_214801_2" x1="77.3631" y1="339.17" x2="82.5164" y2="345.624" gradientUnits="userSpaceOnUse">
<stop stop-color="#C68A8B"/>
<stop offset="1" stop-color="#814545"/>
</linearGradient>
<linearGradient id="paint31_linear_214801_2" x1="117.031" y1="287.733" x2="171.808" y2="279.643" gradientUnits="userSpaceOnUse">
<stop stop-color="#E3B5B5"/>
<stop offset="1" stop-color="#C08282"/>
</linearGradient>
<linearGradient id="paint32_linear_214801_2" x1="146.649" y1="194.741" x2="174.958" y2="206.214" gradientUnits="userSpaceOnUse">
<stop stop-color="#DFC3BC"/>
<stop offset="1" stop-color="#C08282"/>
</linearGradient>
<linearGradient id="paint33_linear_214801_2" x1="208.714" y1="232.096" x2="214.993" y2="228.036" gradientUnits="userSpaceOnUse">
<stop stop-color="#DAF6FE"/>
<stop offset="1" stop-color="#EAF0F2"/>
</linearGradient>
<linearGradient id="paint34_linear_214801_2" x1="107.105" y1="232.4" x2="117.001" y2="236.675" gradientUnits="userSpaceOnUse">
<stop stop-color="#C38686"/>
<stop offset="1" stop-color="#E0BBBB"/>
</linearGradient>
<linearGradient id="paint35_linear_214801_2" x1="147.225" y1="292.235" x2="135.628" y2="282.389" gradientUnits="userSpaceOnUse">
<stop stop-color="#C45884"/>
<stop offset="1" stop-color="#DDB28C"/>
</linearGradient>
<linearGradient id="paint36_linear_214801_2" x1="139.809" y1="305.87" x2="132.049" y2="299.191" gradientUnits="userSpaceOnUse">
<stop stop-color="#C45884"/>
<stop offset="1" stop-color="#DDB28C"/>
</linearGradient>
<clipPath id="clip0_214801_2">
<rect width="259" height="423" fill="white"/>
</clipPath>
</defs>
</svg>
